<?xml version="1.0" standalone="no"?>
<!DOCTYPE svg PUBLIC "-//W3C//DTD SVG 20010904//EN"
 "http://www.w3.org/TR/2001/REC-SVG-20010904/DTD/svg10.dtd">
<svg version="1.0" xmlns="http://www.w3.org/2000/svg"
 width="562.000000pt" height="258.000000pt" viewBox="0 0 562.000000 258.000000"
 preserveAspectRatio="xMidYMid meet">

<g transform="translate(0.000000,258.000000) scale(0.100000,-0.100000)"
fill="#000000" stroke="none">
<path d="M397 2266 c-50 -18 -85 -51 -108 -101 -16 -34 -19 -65 -18 -195 0
-206 16 -251 104 -291 36 -17 70 -19 322 -19 174 0 292 -4 310 -11 48 -18 81
-58 93 -113 8 -32 11 -132 8 -271 -3 -244 -6 -256 -71 -295 -30 -19 -52 -20
-327 -20 -265 0 -299 -2 -335 -19 -90 -41 -104 -83 -105 -307 0 -184 7 -221
49 -268 58 -64 70 -66 452 -66 194 0 370 4 400 10 113 22 204 89 260 192 l34
63 3 716 c3 716 2 717 -19 775 -30 81 -121 172 -204 205 -59 23 -66 24 -435
26 -302 2 -382 0 -413 -11z"/>
<path d="M1735 2271 c-11 -5 -29 -19 -40 -31 -19 -21 -20 -38 -23 -263 -2
-169 0 -249 9 -269 25 -60 8 -58 546 -58 l492 0 28 24 28 24 0 261 0 261 -28
27 -27 28 -483 2 c-265 1 -491 -2 -502 -6z"/>
<path d="M3049 2271 c-43 -14 -77 -41 -93 -76 -14 -29 -16 -96 -16 -520 0
-535 -2 -521 62 -567 33 -23 36 -23 398 -28 l365 -5 0 -40 0 -40 -365 -5
c-405 -6 -398 -4 -441 -73 -18 -30 -19 -48 -17 -263 l3 -231 28 -40 c15 -22
46 -50 70 -64 l42 -24 405 -3 c282 -2 421 0 458 8 69 15 124 67 140 133 8 32
12 199 12 542 0 439 -2 501 -16 531 -9 19 -26 40 -38 47 -15 8 -124 13 -376
17 l-355 5 -3 43 -3 42 328 0 c321 0 330 1 373 23 33 16 51 34 68 67 22 43 23
54 20 237 -3 210 -5 218 -72 267 -27 20 -40 21 -489 23 -254 1 -474 -2 -488
-6z"/>
<path d="M4344 2270 c-12 -4 -31 -21 -43 -36 -21 -27 -22 -34 -19 -282 l3
-254 28 -24 28 -24 492 0 c538 0 521 -2 546 58 9 20 11 100 9 270 l-3 242 -28
27 -27 28 -483 2 c-265 1 -492 -2 -503 -7z"/>
<path d="M1717 1539 c-40 -23 -47 -60 -47 -244 0 -186 7 -222 49 -245 27 -14
985 -14 1012 0 42 23 49 59 49 245 0 186 -7 222 -49 245 -27 14 -989 13 -1014
-1z"/>
<path d="M4327 1539 c-40 -23 -47 -60 -47 -244 0 -186 7 -222 49 -245 13 -6
191 -10 506 -10 535 0 522 -2 544 62 6 17 11 104 11 195 0 174 -9 221 -48 242
-28 15 -990 15 -1015 0z"/>
<path d="M1703 916 l-28 -24 -3 -248 c-3 -276 0 -298 54 -320 49 -20 949 -20
998 0 54 22 57 44 54 320 l-3 248 -28 24 -28 24 -494 0 -494 0 -28 -24z"/>
<path d="M4306 909 l-26 -31 0 -244 c0 -279 4 -295 68 -314 25 -8 188 -10 509
-8 l473 3 27 28 28 27 0 261 0 261 -28 24 -28 24 -499 0 -498 0 -26 -31z"/>
</g>
</svg>
