<svg xmlns="http://www.w3.org/2000/svg" xmlns:xlink="http://www.w3.org/1999/xlink" width="505" zoomAndPan="magnify" viewBox="0 0 378.75 135.750003" height="181" preserveAspectRatio="xMidYMid meet" version="1.0"><defs><g/></defs><path fill="#000000" d="M 30.085938 72.710938 C 30.085938 73.226562 29.988281 73.722656 29.789062 74.199219 C 29.59375 74.675781 29.3125 75.097656 28.945312 75.464844 C 28.582031 75.828125 28.160156 76.109375 27.683594 76.308594 C 27.203125 76.507812 26.707031 76.605469 26.191406 76.605469 C 25.675781 76.605469 25.175781 76.507812 24.699219 76.308594 C 24.222656 76.109375 23.800781 75.828125 23.4375 75.464844 C 23.070312 75.097656 22.789062 74.675781 22.59375 74.199219 C 22.394531 73.722656 22.296875 73.226562 22.296875 72.710938 C 22.296875 72.191406 22.394531 71.695312 22.59375 71.21875 C 22.789062 70.742188 23.070312 70.320312 23.4375 69.957031 C 23.800781 69.589844 24.222656 69.308594 24.699219 69.109375 C 25.175781 68.914062 25.675781 68.816406 26.191406 68.816406 C 26.707031 68.816406 27.203125 68.914062 27.683594 69.109375 C 28.160156 69.308594 28.582031 69.589844 28.945312 69.957031 C 29.3125 70.320312 29.59375 70.742188 29.789062 71.21875 C 29.988281 71.695312 30.085938 72.191406 30.085938 72.710938 Z M 30.085938 72.710938 " fill-opacity="1" fill-rule="nonzero"/><path fill="#000000" d="M 40.472656 72.710938 C 40.472656 73.226562 40.375 73.722656 40.175781 74.199219 C 39.980469 74.675781 39.699219 75.097656 39.332031 75.464844 C 38.96875 75.828125 38.546875 76.109375 38.070312 76.308594 C 37.589844 76.507812 37.09375 76.605469 36.578125 76.605469 C 36.0625 76.605469 35.566406 76.507812 35.085938 76.308594 C 34.609375 76.109375 34.1875 75.828125 33.824219 75.464844 C 33.457031 75.097656 33.175781 74.675781 32.980469 74.199219 C 32.78125 73.722656 32.683594 73.226562 32.683594 72.710938 C 32.683594 72.191406 32.78125 71.695312 32.980469 71.21875 C 33.175781 70.742188 33.457031 70.320312 33.824219 69.957031 C 34.1875 69.589844 34.609375 69.308594 35.085938 69.109375 C 35.566406 68.914062 36.0625 68.816406 36.578125 68.816406 C 37.09375 68.816406 37.589844 68.914062 38.070312 69.109375 C 38.546875 69.308594 38.96875 69.589844 39.332031 69.957031 C 39.699219 70.320312 39.980469 70.742188 40.175781 71.21875 C 40.375 71.695312 40.472656 72.191406 40.472656 72.710938 Z M 40.472656 72.710938 " fill-opacity="1" fill-rule="nonzero"/><path fill="#000000" d="M 43.070312 63.621094 L 45.667969 63.621094 L 45.667969 58.425781 L 48.265625 58.425781 L 48.265625 63.621094 L 50.859375 63.621094 L 50.859375 58.425781 L 53.457031 58.425781 L 53.457031 63.621094 L 56.054688 63.621094 L 56.054688 58.425781 C 57.484375 58.425781 58.652344 57.261719 58.652344 55.832031 L 63.84375 55.832031 L 63.84375 53.234375 L 58.652344 53.234375 L 58.652344 50.636719 L 63.84375 50.636719 L 63.84375 48.039062 L 58.652344 48.039062 L 58.652344 45.445312 L 63.84375 45.445312 L 63.84375 42.847656 L 58.652344 42.847656 L 58.652344 40.25 L 63.84375 40.25 L 63.84375 37.652344 L 58.652344 37.652344 L 58.652344 35.054688 L 63.84375 35.054688 L 63.84375 32.460938 L 58.652344 32.460938 L 58.652344 29.863281 L 63.84375 29.863281 L 63.84375 27.265625 L 58.652344 27.265625 C 58.652344 25.835938 57.484375 24.667969 56.054688 24.667969 L 56.054688 19.476562 L 53.457031 19.476562 L 53.457031 24.667969 L 50.859375 24.667969 L 50.859375 19.476562 L 48.265625 19.476562 L 48.265625 24.667969 L 45.667969 24.667969 L 45.667969 19.476562 L 43.070312 19.476562 L 43.070312 24.667969 L 40.472656 24.667969 L 40.472656 19.476562 L 37.875 19.476562 L 37.875 24.667969 L 35.28125 24.667969 L 35.28125 19.476562 L 32.683594 19.476562 L 32.683594 24.667969 L 30.085938 24.667969 L 30.085938 19.476562 L 27.488281 19.476562 L 27.488281 24.667969 C 26.058594 24.667969 24.894531 25.835938 24.894531 27.265625 L 19.699219 27.265625 L 19.699219 29.863281 L 24.894531 29.863281 L 24.894531 32.460938 L 19.699219 32.460938 L 19.699219 35.054688 L 24.894531 35.054688 L 24.894531 37.652344 L 19.699219 37.652344 L 19.699219 40.25 L 24.894531 40.25 L 24.894531 42.847656 L 19.699219 42.847656 L 19.699219 45.445312 L 24.894531 45.445312 L 24.894531 48.039062 L 19.699219 48.039062 L 19.699219 50.636719 L 24.894531 50.636719 L 24.894531 53.234375 L 19.699219 53.234375 L 19.699219 55.832031 L 24.894531 55.832031 C 24.894531 57.261719 26.058594 58.425781 27.488281 58.425781 L 27.488281 63.621094 L 30.085938 63.621094 L 30.085938 58.425781 L 32.683594 58.425781 L 32.683594 63.621094 L 35.28125 63.621094 L 35.28125 58.425781 L 37.875 58.425781 L 37.875 63.621094 L 40.472656 63.621094 L 40.472656 58.425781 L 43.070312 58.425781 Z M 49.5625 31.160156 C 50.996094 31.160156 52.160156 32.324219 52.160156 33.757812 C 52.160156 35.191406 50.996094 36.355469 49.5625 36.355469 C 48.128906 36.355469 46.964844 35.191406 46.964844 33.757812 C 46.964844 32.324219 48.128906 31.160156 49.5625 31.160156 Z M 33.980469 51.9375 C 32.546875 51.9375 31.382812 50.773438 31.382812 49.339844 C 31.382812 47.902344 32.546875 46.742188 33.980469 46.742188 C 35.417969 46.742188 36.578125 47.902344 36.578125 49.339844 C 36.578125 50.773438 35.417969 51.9375 33.980469 51.9375 Z M 35.28125 35.054688 L 35.28125 42.847656 L 32.683594 42.847656 L 32.683594 32.460938 L 43.070312 32.460938 L 43.070312 35.054688 Z M 40.472656 50.636719 L 40.472656 48.039062 L 48.265625 48.039062 L 48.265625 40.25 L 50.859375 40.25 L 50.859375 50.636719 Z M 40.472656 50.636719 " fill-opacity="1" fill-rule="nonzero"/><path fill="#000000" d="M 58.652344 9.089844 L 61.246094 9.089844 L 61.246094 14.28125 L 79.425781 14.28125 L 79.425781 1.296875 L 61.246094 1.296875 L 61.246094 6.492188 L 58.652344 6.492188 L 58.652344 1.296875 L 40.472656 1.296875 L 40.472656 14.28125 L 58.652344 14.28125 Z M 71.636719 6.492188 L 74.230469 6.492188 L 74.230469 9.089844 L 71.636719 9.089844 Z M 66.441406 6.492188 L 69.039062 6.492188 L 69.039062 9.089844 L 66.441406 9.089844 Z M 48.265625 9.089844 L 45.667969 9.089844 L 45.667969 6.492188 L 48.265625 6.492188 Z M 53.457031 9.089844 L 50.859375 9.089844 L 50.859375 6.492188 L 53.457031 6.492188 Z M 53.457031 9.089844 " fill-opacity="1" fill-rule="nonzero"/><path fill="#000000" d="M 17.101562 63.621094 L 14.503906 63.621094 L 14.503906 66.21875 L 11.910156 66.21875 L 11.910156 63.621094 L 9.3125 63.621094 L 9.3125 66.21875 L 6.714844 66.21875 L 6.714844 63.621094 L 4.117188 63.621094 L 4.117188 66.21875 L 1.523438 66.21875 L 1.523438 79.203125 L 4.117188 79.203125 L 4.117188 81.796875 L 6.714844 81.796875 L 6.714844 79.203125 L 9.3125 79.203125 L 9.3125 81.796875 L 11.910156 81.796875 L 11.910156 79.203125 L 14.503906 79.203125 L 14.503906 81.796875 L 17.101562 81.796875 L 17.101562 79.203125 L 19.699219 79.203125 L 19.699219 66.21875 L 17.101562 66.21875 Z M 9.3125 74.007812 L 6.714844 74.007812 L 6.714844 71.410156 L 9.3125 71.410156 Z M 14.503906 74.007812 L 11.910156 74.007812 L 11.910156 71.410156 L 14.503906 71.410156 Z M 14.503906 74.007812 " fill-opacity="1" fill-rule="nonzero"/><path fill="#000000" d="M 82.023438 77.902344 C 82.023438 78.421875 81.921875 78.917969 81.726562 79.394531 C 81.527344 79.871094 81.246094 80.292969 80.882812 80.65625 C 80.515625 81.023438 80.09375 81.304688 79.617188 81.503906 C 79.140625 81.699219 78.644531 81.796875 78.125 81.796875 C 77.609375 81.796875 77.113281 81.699219 76.636719 81.503906 C 76.160156 81.304688 75.738281 81.023438 75.371094 80.65625 C 75.007812 80.292969 74.726562 79.871094 74.527344 79.394531 C 74.332031 78.917969 74.230469 78.421875 74.230469 77.902344 C 74.230469 77.386719 74.332031 76.890625 74.527344 76.414062 C 74.726562 75.9375 75.007812 75.515625 75.371094 75.148438 C 75.738281 74.785156 76.160156 74.503906 76.636719 74.304688 C 77.113281 74.105469 77.609375 74.007812 78.125 74.007812 C 78.644531 74.007812 79.140625 74.105469 79.617188 74.304688 C 80.09375 74.503906 80.515625 74.785156 80.882812 75.148438 C 81.246094 75.515625 81.527344 75.9375 81.726562 76.414062 C 81.921875 76.890625 82.023438 77.386719 82.023438 77.902344 Z M 82.023438 77.902344 " fill-opacity="1" fill-rule="nonzero"/><path fill="#000000" d="M 53.457031 76.605469 L 71.636719 76.605469 L 71.636719 79.203125 L 53.457031 79.203125 Z M 53.457031 76.605469 " fill-opacity="1" fill-rule="nonzero"/><path fill="#000000" d="M 76.828125 71.410156 L 79.425781 71.410156 L 79.425781 40.25 L 73.992188 40.25 C 73.457031 38.742188 72.027344 37.652344 70.335938 37.652344 C 68.1875 37.652344 66.441406 39.402344 66.441406 41.546875 C 66.441406 43.695312 68.1875 45.445312 70.335938 45.445312 C 72.027344 45.445312 73.457031 44.355469 73.992188 42.847656 L 76.828125 42.847656 Z M 76.828125 71.410156 " fill-opacity="1" fill-rule="nonzero"/><path fill="#000000" d="M 69.039062 71.410156 L 43.070312 71.410156 L 43.070312 74.007812 L 71.636719 74.007812 L 71.636719 48.039062 L 69.039062 48.039062 Z M 69.039062 71.410156 " fill-opacity="1" fill-rule="nonzero"/><path fill="#000000" d="M 69.039062 16.878906 L 71.636719 16.878906 L 71.636719 35.054688 L 69.039062 35.054688 Z M 69.039062 16.878906 " fill-opacity="1" fill-rule="nonzero"/><path fill="#000000" d="M 82.023438 33.757812 C 82.023438 34.273438 81.921875 34.773438 81.726562 35.25 C 81.527344 35.726562 81.246094 36.148438 80.882812 36.511719 C 80.515625 36.878906 80.09375 37.160156 79.617188 37.355469 C 79.140625 37.554688 78.644531 37.652344 78.125 37.652344 C 77.609375 37.652344 77.113281 37.554688 76.636719 37.355469 C 76.160156 37.160156 75.738281 36.878906 75.371094 36.511719 C 75.007812 36.148438 74.726562 35.726562 74.527344 35.25 C 74.332031 34.773438 74.230469 34.273438 74.230469 33.757812 C 74.230469 33.242188 74.332031 32.746094 74.527344 32.265625 C 74.726562 31.789062 75.007812 31.367188 75.371094 31.003906 C 75.738281 30.636719 76.160156 30.355469 76.636719 30.160156 C 77.113281 29.960938 77.609375 29.863281 78.125 29.863281 C 78.644531 29.863281 79.140625 29.960938 79.617188 30.160156 C 80.09375 30.355469 80.515625 30.636719 80.882812 31.003906 C 81.246094 31.367188 81.527344 31.789062 81.726562 32.265625 C 81.921875 32.746094 82.023438 33.242188 82.023438 33.757812 Z M 82.023438 33.757812 " fill-opacity="1" fill-rule="nonzero"/><path fill="#000000" d="M 76.828125 16.878906 L 79.425781 16.878906 L 79.425781 27.265625 L 76.828125 27.265625 Z M 76.828125 16.878906 " fill-opacity="1" fill-rule="nonzero"/><path fill="#000000" d="M 9.3125 57.128906 C 9.3125 57.644531 9.214844 58.140625 9.015625 58.621094 C 8.816406 59.097656 8.535156 59.519531 8.171875 59.882812 C 7.804688 60.25 7.382812 60.53125 6.90625 60.726562 C 6.429688 60.925781 5.933594 61.023438 5.417969 61.023438 C 4.898438 61.023438 4.402344 60.925781 3.925781 60.726562 C 3.449219 60.53125 3.027344 60.25 2.664062 59.882812 C 2.296875 59.519531 2.015625 59.097656 1.816406 58.621094 C 1.621094 58.140625 1.523438 57.644531 1.523438 57.128906 C 1.523438 56.613281 1.621094 56.117188 1.816406 55.636719 C 2.015625 55.160156 2.296875 54.738281 2.664062 54.375 C 3.027344 54.007812 3.449219 53.726562 3.925781 53.53125 C 4.402344 53.332031 4.898438 53.234375 5.417969 53.234375 C 5.933594 53.234375 6.429688 53.332031 6.90625 53.53125 C 7.382812 53.726562 7.804688 54.007812 8.171875 54.375 C 8.535156 54.738281 8.816406 55.160156 9.015625 55.636719 C 9.214844 56.117188 9.3125 56.613281 9.3125 57.128906 Z M 9.3125 57.128906 " fill-opacity="1" fill-rule="nonzero"/><path fill="#000000" d="M 14.503906 27.265625 L 11.910156 27.265625 L 11.910156 31.160156 L 4.117188 31.160156 L 4.117188 50.636719 L 6.714844 50.636719 L 6.714844 33.757812 L 14.503906 33.757812 Z M 14.503906 27.265625 " fill-opacity="1" fill-rule="nonzero"/><path fill="#000000" d="M 17.101562 40.25 C 17.101562 40.765625 17.003906 41.261719 16.804688 41.742188 C 16.609375 42.21875 16.328125 42.640625 15.960938 43.003906 C 15.597656 43.371094 15.175781 43.652344 14.699219 43.847656 C 14.21875 44.046875 13.722656 44.144531 13.207031 44.144531 C 12.691406 44.144531 12.195312 44.046875 11.714844 43.847656 C 11.238281 43.652344 10.816406 43.371094 10.453125 43.003906 C 10.085938 42.640625 9.804688 42.21875 9.609375 41.742188 C 9.410156 41.261719 9.3125 40.765625 9.3125 40.25 C 9.3125 39.734375 9.410156 39.238281 9.609375 38.757812 C 9.804688 38.28125 10.085938 37.859375 10.453125 37.496094 C 10.816406 37.128906 11.238281 36.847656 11.714844 36.652344 C 12.195312 36.453125 12.691406 36.355469 13.207031 36.355469 C 13.722656 36.355469 14.21875 36.453125 14.699219 36.652344 C 15.175781 36.847656 15.597656 37.128906 15.960938 37.496094 C 16.328125 37.859375 16.609375 38.28125 16.804688 38.757812 C 17.003906 39.238281 17.101562 39.734375 17.101562 40.25 Z M 17.101562 40.25 " fill-opacity="1" fill-rule="nonzero"/><path fill="#000000" d="M 11.910156 46.742188 L 14.503906 46.742188 L 14.503906 59.726562 L 11.910156 59.726562 Z M 11.910156 46.742188 " fill-opacity="1" fill-rule="nonzero"/><path fill="#000000" d="M 9.3125 5.195312 C 9.3125 5.710938 9.214844 6.207031 9.015625 6.683594 C 8.816406 7.160156 8.535156 7.582031 8.171875 7.949219 C 7.804688 8.3125 7.382812 8.59375 6.90625 8.792969 C 6.429688 8.988281 5.933594 9.089844 5.417969 9.089844 C 4.898438 9.089844 4.402344 8.988281 3.925781 8.792969 C 3.449219 8.59375 3.027344 8.3125 2.664062 7.949219 C 2.296875 7.582031 2.015625 7.160156 1.816406 6.683594 C 1.621094 6.207031 1.523438 5.710938 1.523438 5.195312 C 1.523438 4.675781 1.621094 4.179688 1.816406 3.703125 C 2.015625 3.226562 2.296875 2.804688 2.664062 2.4375 C 3.027344 2.074219 3.449219 1.792969 3.925781 1.59375 C 4.402344 1.398438 4.898438 1.296875 5.417969 1.296875 C 5.933594 1.296875 6.429688 1.398438 6.90625 1.59375 C 7.382812 1.792969 7.804688 2.074219 8.171875 2.4375 C 8.535156 2.804688 8.816406 3.226562 9.015625 3.703125 C 9.214844 4.179688 9.3125 4.675781 9.3125 5.195312 Z M 9.3125 5.195312 " fill-opacity="1" fill-rule="nonzero"/><path fill="#000000" d="M 37.875 7.789062 C 37.875 8.308594 37.777344 8.804688 37.582031 9.28125 C 37.382812 9.757812 37.101562 10.179688 36.734375 10.542969 C 36.371094 10.910156 35.949219 11.191406 35.472656 11.390625 C 34.996094 11.585938 34.496094 11.683594 33.980469 11.683594 C 33.464844 11.683594 32.96875 11.585938 32.492188 11.390625 C 32.011719 11.191406 31.59375 10.910156 31.226562 10.542969 C 30.863281 10.179688 30.582031 9.757812 30.382812 9.28125 C 30.183594 8.804688 30.085938 8.308594 30.085938 7.789062 C 30.085938 7.273438 30.183594 6.777344 30.382812 6.300781 C 30.582031 5.824219 30.863281 5.402344 31.226562 5.035156 C 31.59375 4.671875 32.011719 4.390625 32.492188 4.191406 C 32.96875 3.992188 33.464844 3.894531 33.980469 3.894531 C 34.496094 3.894531 34.996094 3.992188 35.472656 4.191406 C 35.949219 4.390625 36.371094 4.671875 36.734375 5.035156 C 37.101562 5.402344 37.382812 5.824219 37.582031 6.300781 C 37.777344 6.777344 37.875 7.273438 37.875 7.789062 Z M 37.875 7.789062 " fill-opacity="1" fill-rule="nonzero"/><path fill="#000000" d="M 19.699219 18.175781 L 24.894531 18.175781 L 24.894531 9.089844 L 27.488281 9.089844 L 27.488281 6.492188 L 22.296875 6.492188 L 22.296875 15.582031 L 17.101562 15.582031 L 17.101562 24.667969 L 19.699219 24.667969 Z M 19.699219 18.175781 " fill-opacity="1" fill-rule="nonzero"/><path fill="#000000" d="M 6.714844 10.386719 L 4.117188 10.386719 L 4.117188 20.773438 L 11.910156 20.773438 L 11.910156 24.667969 L 14.503906 24.667969 L 14.503906 18.175781 L 6.714844 18.175781 Z M 6.714844 10.386719 " fill-opacity="1" fill-rule="nonzero"/><g fill="#000000" fill-opacity="1"><g transform="translate(89.093245, 63.806415)"><g><path d="M 1.34375 -42.984375 L 26.421875 -42.984375 C 26.578125 -42.984375 28.789062 -40.765625 33.0625 -36.328125 L 33.0625 -30.53125 C 33.0625 -30.3125 32.953125 -30.203125 32.734375 -30.203125 L 1.34375 -30.203125 C 1.113281 -30.203125 1 -30.3125 1 -30.53125 L 1 -42.640625 C 1.039062 -42.867188 1.15625 -42.984375 1.34375 -42.984375 Z M 1 -28.140625 L 13.96875 -28.140625 L 13.96875 -23.890625 L 20.109375 -23.890625 L 20.109375 -28.140625 L 33.0625 -28.140625 L 33.0625 -17.578125 C 33.0625 -17.421875 30.847656 -15.203125 26.421875 -10.921875 L 13.96875 -10.921875 L 13.96875 8.015625 L 10.734375 8.015625 L 10.734375 3.234375 L 8.5 3.234375 L 8.5 8.015625 L 6.296875 8.015625 L 6.296875 3.234375 L 4.078125 3.234375 L 4.078125 8.015625 L 1.34375 8.015625 C 1.113281 8.015625 1 7.898438 1 7.671875 Z M 16.984375 -13.8125 L 16.984375 -7.84375 L 19.203125 -7.84375 L 19.203125 -13.8125 Z M 22.09375 -13.8125 L 22.09375 -7.84375 L 24.328125 -7.84375 L 24.328125 -13.8125 Z M 22.09375 -13.8125 "/></g></g><g transform="translate(128.199851, 63.806415)"><g><path d="M 1.34375 -42.828125 L 25.734375 -42.828125 C 25.679688 -42.085938 25.054688 -40.945312 23.859375 -39.40625 L 1 -39.40625 L 1 -42.484375 C 1.039062 -42.710938 1.15625 -42.828125 1.34375 -42.828125 Z M 33.0625 -42.828125 C 33.289062 -42.785156 33.40625 -42.671875 33.40625 -42.484375 L 33.40625 -29.859375 L 13.96875 -29.859375 L 13.96875 -23.71875 L 28.8125 -23.71875 L 28.8125 -10.921875 L 13.96875 -10.921875 L 13.96875 -4.609375 L 33.40625 -4.609375 L 33.40625 -0.84375 C 33.375 -0.664062 30.367188 2.34375 24.390625 8.1875 L 1.34375 8.1875 C 1.113281 8.1875 1 8.070312 1 7.84375 L 1 -37.1875 C 1.039062 -37.414062 1.15625 -37.53125 1.34375 -37.53125 L 25.0625 -37.53125 C 26.769531 -41.0625 27.851562 -42.828125 28.3125 -42.828125 Z M 3.21875 0.34375 L 3.21875 6.3125 L 5.453125 6.3125 L 5.453125 0.34375 Z M 7.65625 0.34375 L 7.65625 6.3125 L 9.875 6.3125 L 9.875 0.34375 Z M 7.65625 0.34375 "/></g></g><g transform="translate(167.648263, 63.806415)"><g><path d="M 5.9375 -30.203125 L 1 -30.203125 L 1 -42.640625 C 1.039062 -42.867188 1.15625 -42.984375 1.34375 -42.984375 L 5.9375 -42.984375 Z M 1 -28.140625 L 16.359375 -28.140625 C 16.785156 -27.816406 19.578125 -22.875 24.734375 -13.3125 C 25.023438 -13.007812 29.003906 -5.898438 36.671875 8.015625 L 26.59375 8.015625 C 26.039062 7.472656 21.832031 0.140625 13.96875 -13.984375 L 13.796875 -13.984375 L 13.796875 8.015625 L 10.21875 8.015625 C 10.082031 8.015625 7.007812 4.945312 1 -1.1875 Z M 8.40625 -42.984375 L 13.625 -42.984375 C 15.3125 -40.390625 19.519531 -32.941406 26.25 -20.640625 L 26.421875 -20.640625 L 26.421875 -42.640625 C 26.453125 -42.867188 26.5625 -42.984375 26.75 -42.984375 L 29.15625 -42.984375 C 29.375 -42.953125 29.484375 -42.835938 29.484375 -42.640625 L 29.484375 -39.234375 L 31.71875 -39.234375 L 31.71875 -42.640625 C 31.75 -42.867188 31.859375 -42.984375 32.046875 -42.984375 L 33.59375 -42.984375 C 33.820312 -42.953125 33.9375 -42.835938 33.9375 -42.640625 L 33.9375 -39.234375 L 36.140625 -39.234375 L 36.140625 -42.640625 C 36.179688 -42.867188 36.296875 -42.984375 36.484375 -42.984375 L 38.875 -42.984375 C 39.101562 -42.953125 39.21875 -42.835938 39.21875 -42.640625 L 39.21875 8.015625 L 38.875 8.015625 L 17.546875 -30.203125 L 8.40625 -30.203125 Z M 8.40625 -42.984375 "/></g></g><g transform="translate(212.907373, 63.806415)"><g/></g><g transform="translate(229.37437, 63.806415)"><g><path d="M 1.34375 -42.828125 L 26.421875 -42.828125 C 26.566406 -42.828125 28.726562 -40.660156 32.90625 -36.328125 L 32.90625 -18.9375 L 20.109375 -18.9375 L 20.109375 -29.859375 L 13.96875 -29.859375 L 13.96875 -18.9375 L 1 -18.9375 L 1 -42.484375 C 1.039062 -42.710938 1.15625 -42.828125 1.34375 -42.828125 Z M 1 -16.890625 L 13.96875 -16.890625 L 13.96875 -4.609375 L 20.109375 -4.609375 L 20.109375 -16.890625 L 32.90625 -16.890625 L 32.90625 1.703125 C 32.90625 1.859375 30.742188 4.019531 26.421875 8.1875 L 1.34375 8.1875 C 1.113281 8.1875 1 8.070312 1 7.84375 Z M 3.734375 -1.53125 L 3.734375 4.4375 L 5.953125 4.4375 L 5.953125 -1.53125 Z M 8.15625 -1.53125 L 8.15625 4.4375 L 10.390625 4.4375 L 10.390625 -1.53125 Z M 8.15625 -1.53125 "/></g></g><g transform="translate(268.320126, 63.806415)"><g><path d="M 12.953125 -42.828125 L 19.765625 -42.828125 C 20.023438 -42.828125 20.878906 -39.414062 22.328125 -32.59375 L 30.171875 -0.15625 L 39.5625 -0.15625 C 40.8125 4.945312 41.4375 7.726562 41.4375 8.1875 L 27.28125 8.1875 L 25.734375 0.859375 L 16.703125 0.859375 C 15.703125 5.742188 15.070312 8.1875 14.8125 8.1875 L 7.8125 8.1875 L 7.8125 4.953125 L 5.609375 4.953125 L 5.609375 8.1875 L 1 8.1875 L 1 8.015625 C 1.226562 6.660156 5.210938 -10.285156 12.953125 -42.828125 Z M 22.328125 -42.828125 L 29.484375 -42.828125 L 39.046875 -2.21875 L 31.546875 -2.21875 C 30.984375 -5.132812 27.800781 -18.609375 22 -42.640625 Z M 21.125 -18.421875 L 19.765625 -11.9375 L 22.671875 -11.9375 C 22.671875 -12.289062 22.21875 -14.453125 21.3125 -18.421875 Z M 21.125 -18.421875 "/></g></g><g transform="translate(315.790921, 63.806415)"><g><path d="M -0.203125 -42.984375 L 12.921875 -42.984375 C 13.273438 -42.984375 14.53125 -40.023438 16.6875 -34.109375 C 16.863281 -34.085938 17.375 -32.835938 18.21875 -30.359375 L 18.5625 -30.359375 L 23.515625 -42.984375 L 26.421875 -42.984375 C 26.640625 -42.953125 26.75 -42.835938 26.75 -42.640625 L 26.75 -38.5625 L 28.96875 -38.5625 L 28.96875 -42.640625 C 29.007812 -42.867188 29.125 -42.984375 29.3125 -42.984375 L 30.5 -42.984375 C 30.726562 -42.953125 30.84375 -42.835938 30.84375 -42.640625 L 30.84375 -38.5625 L 33.0625 -38.5625 L 33.0625 -42.640625 C 33.09375 -42.867188 33.207031 -42.984375 33.40625 -42.984375 L 37.15625 -42.984375 L 37.15625 -42.828125 L 25.546875 -13.65625 L 25.546875 8.015625 L 16.53125 8.015625 L 16.53125 -15.859375 L 10.546875 -15.859375 C 10.242188 -15.992188 8.648438 -19.863281 5.765625 -27.46875 C 5.535156 -27.84375 3.429688 -32.960938 -0.546875 -42.828125 Z M 11.234375 -13.8125 L 14.640625 -13.8125 L 14.640625 8.015625 L 11.234375 8.015625 Z M 18.75 -0.203125 L 18.75 5.765625 L 20.96875 5.765625 L 20.96875 -0.203125 Z M 18.75 -0.203125 "/></g></g></g><g fill="#000000" fill-opacity="1"><g transform="translate(231.185359, 113.777733)"><g><path d="M 5.640625 -31.578125 L 9.171875 -31.578125 C 9.335938 -31.546875 9.421875 -31.460938 9.421875 -31.328125 L 9.421875 -19.75 L 0.734375 -19.75 L 0.734375 -26.671875 C 0.734375 -26.773438 2.367188 -28.410156 5.640625 -31.578125 Z M 10.921875 -31.578125 L 19.109375 -31.578125 C 19.585938 -31.578125 20.929688 -30.359375 23.140625 -27.921875 C 23.242188 -27.921875 23.617188 -27.539062 24.265625 -26.78125 L 24.265625 -12.84375 L 14.953125 -3.390625 L 24.265625 -3.390625 L 24.265625 6.03125 L 0.734375 6.03125 L 0.734375 -3.28125 L 14.828125 -17.5 L 14.828125 -22.015625 L 10.921875 -22.015625 Z M 17.734375 -2.140625 L 17.734375 2.265625 L 19.359375 2.265625 L 19.359375 -2.140625 Z M 20.734375 -2.140625 L 20.734375 2.265625 L 22.390625 2.265625 L 22.390625 -2.140625 Z M 20.734375 -2.140625 "/></g></g></g><g fill="#000000" fill-opacity="1"><g transform="translate(259.902919, 113.777733)"><g><path d="M 6.65625 -31.578125 L 19.359375 -31.578125 C 19.460938 -31.578125 21.097656 -29.941406 24.265625 -26.671875 L 24.265625 1.125 C 24.265625 1.238281 22.628906 2.875 19.359375 6.03125 L 5.515625 6.03125 C 5.398438 6.03125 3.804688 4.441406 0.734375 1.265625 L 0.734375 1.015625 C 3.285156 -1.648438 6.429688 -4.800781 10.171875 -8.4375 L 10.171875 -3.390625 L 14.703125 -3.390625 L 14.703125 -22.015625 L 11.5625 -22.015625 L 11.5625 -26.421875 L 6.65625 -31.4375 Z M 5.03125 -31.078125 L 10.171875 -25.796875 C 10.085938 -21.898438 10.046875 -18.878906 10.046875 -16.734375 L 10.046875 -10.4375 C 7.304688 -7.601562 4.203125 -4.5 0.734375 -1.125 L 0.734375 -26.78125 C 0.804688 -26.957031 2.238281 -28.390625 5.03125 -31.078125 Z M 15.96875 -8.046875 L 15.96875 -3.640625 L 17.59375 -3.640625 L 17.59375 -8.046875 Z M 15.96875 -8.046875 "/></g></g></g><g fill="#000000" fill-opacity="1"><g transform="translate(288.62048, 113.777733)"><g><path d="M 5.640625 -31.578125 L 9.171875 -31.578125 C 9.335938 -31.546875 9.421875 -31.460938 9.421875 -31.328125 L 9.421875 -19.75 L 0.734375 -19.75 L 0.734375 -26.671875 C 0.734375 -26.773438 2.367188 -28.410156 5.640625 -31.578125 Z M 10.921875 -31.578125 L 19.109375 -31.578125 C 19.585938 -31.578125 20.929688 -30.359375 23.140625 -27.921875 C 23.242188 -27.921875 23.617188 -27.539062 24.265625 -26.78125 L 24.265625 -12.84375 L 14.953125 -3.390625 L 24.265625 -3.390625 L 24.265625 6.03125 L 0.734375 6.03125 L 0.734375 -3.28125 L 14.828125 -17.5 L 14.828125 -22.015625 L 10.921875 -22.015625 Z M 17.734375 -2.140625 L 17.734375 2.265625 L 19.359375 2.265625 L 19.359375 -2.140625 Z M 20.734375 -2.140625 L 20.734375 2.265625 L 22.390625 2.265625 L 22.390625 -2.140625 Z M 20.734375 -2.140625 "/></g></g></g><g fill="#000000" fill-opacity="1"><g transform="translate(317.338041, 113.777733)"><g><path d="M 1 -31.578125 L 17.84375 -31.578125 L 17.84375 -31.4375 C 15.5625 -28.925781 14.179688 -27.671875 13.703125 -27.671875 L 1 -27.671875 C 0.820312 -27.671875 0.734375 -27.753906 0.734375 -27.921875 L 0.734375 -31.328125 C 0.765625 -31.492188 0.851562 -31.578125 1 -31.578125 Z M 24.015625 -31.578125 C 24.179688 -31.546875 24.265625 -31.460938 24.265625 -31.328125 L 24.265625 -22.015625 L 10.171875 -22.015625 L 10.171875 -19.625 L 19.484375 -19.625 C 19.585938 -19.625 21.179688 -18.03125 24.265625 -14.84375 L 24.265625 1.265625 C 24.265625 1.367188 22.671875 2.957031 19.484375 6.03125 L 17.984375 6.03125 L 17.984375 3.03125 L 16.34375 3.03125 L 16.34375 6.03125 L 14.953125 6.03125 L 14.953125 3.03125 L 13.328125 3.03125 L 13.328125 6.03125 L 5.515625 6.03125 C 5.398438 6.03125 3.804688 4.441406 0.734375 1.265625 L 0.734375 -8.046875 L 10.171875 -8.046875 L 10.171875 -3.390625 L 14.828125 -3.390625 L 14.828125 -10.1875 L 0.734375 -10.1875 L 0.734375 -26.296875 L 14.703125 -26.296875 C 18.253906 -29.816406 20.097656 -31.578125 20.234375 -31.578125 Z M 24.015625 -31.578125 "/></g></g></g></svg>