<svg xmlns="http://www.w3.org/2000/svg" xmlns:xlink="http://www.w3.org/1999/xlink" width="505" zoomAndPan="magnify" viewBox="0 0 378.75 135.750003" height="181" preserveAspectRatio="xMidYMid meet" version="1.0"><defs><g/></defs><path fill="#ffffff" d="M 30.179688 72.933594 C 30.179688 73.453125 30.078125 73.953125 29.882812 74.429688 C 29.683594 74.910156 29.402344 75.332031 29.035156 75.699219 C 28.667969 76.0625 28.246094 76.347656 27.765625 76.542969 C 27.289062 76.742188 26.789062 76.84375 26.273438 76.84375 C 25.753906 76.84375 25.253906 76.742188 24.777344 76.542969 C 24.296875 76.347656 23.875 76.0625 23.507812 75.699219 C 23.140625 75.332031 22.859375 74.910156 22.660156 74.429688 C 22.464844 73.953125 22.363281 73.453125 22.363281 72.933594 C 22.363281 72.417969 22.464844 71.917969 22.660156 71.441406 C 22.859375 70.960938 23.140625 70.539062 23.507812 70.171875 C 23.875 69.804688 24.296875 69.523438 24.777344 69.324219 C 25.253906 69.125 25.753906 69.027344 26.273438 69.027344 C 26.789062 69.027344 27.289062 69.125 27.765625 69.324219 C 28.246094 69.523438 28.667969 69.804688 29.035156 70.171875 C 29.402344 70.539062 29.683594 70.960938 29.882812 71.441406 C 30.078125 71.917969 30.179688 72.417969 30.179688 72.933594 Z M 30.179688 72.933594 " fill-opacity="1" fill-rule="nonzero"/><path fill="#ffffff" d="M 40.597656 72.933594 C 40.597656 73.453125 40.5 73.953125 40.300781 74.429688 C 40.101562 74.910156 39.820312 75.332031 39.453125 75.699219 C 39.085938 76.0625 38.664062 76.347656 38.1875 76.542969 C 37.707031 76.742188 37.207031 76.84375 36.691406 76.84375 C 36.171875 76.84375 35.675781 76.742188 35.195312 76.542969 C 34.71875 76.347656 34.292969 76.0625 33.929688 75.699219 C 33.5625 75.332031 33.28125 74.910156 33.082031 74.429688 C 32.882812 73.953125 32.785156 73.453125 32.785156 72.933594 C 32.785156 72.417969 32.882812 71.917969 33.082031 71.441406 C 33.28125 70.960938 33.5625 70.539062 33.929688 70.171875 C 34.292969 69.804688 34.71875 69.523438 35.195312 69.324219 C 35.675781 69.125 36.171875 69.027344 36.691406 69.027344 C 37.207031 69.027344 37.707031 69.125 38.1875 69.324219 C 38.664062 69.523438 39.085938 69.804688 39.453125 70.171875 C 39.820312 70.539062 40.101562 70.960938 40.300781 71.441406 C 40.5 71.917969 40.597656 72.417969 40.597656 72.933594 Z M 40.597656 72.933594 " fill-opacity="1" fill-rule="nonzero"/><path fill="#ffffff" d="M 43.203125 63.816406 L 45.808594 63.816406 L 45.808594 58.609375 L 48.414062 58.609375 L 48.414062 63.816406 L 51.015625 63.816406 L 51.015625 58.609375 L 53.621094 58.609375 L 53.621094 63.816406 L 56.226562 63.816406 L 56.226562 58.609375 C 57.664062 58.609375 58.832031 57.441406 58.832031 56.003906 L 64.042969 56.003906 L 64.042969 53.398438 L 58.832031 53.398438 L 58.832031 50.792969 L 64.042969 50.792969 L 64.042969 48.1875 L 58.832031 48.1875 L 58.832031 45.585938 L 64.042969 45.585938 L 64.042969 42.980469 L 58.832031 42.980469 L 58.832031 40.375 L 64.042969 40.375 L 64.042969 37.769531 L 58.832031 37.769531 L 58.832031 35.164062 L 64.042969 35.164062 L 64.042969 32.558594 L 58.832031 32.558594 L 58.832031 29.957031 L 64.042969 29.957031 L 64.042969 27.351562 L 58.832031 27.351562 C 58.832031 25.914062 57.664062 24.746094 56.226562 24.746094 L 56.226562 19.535156 L 53.621094 19.535156 L 53.621094 24.746094 L 51.015625 24.746094 L 51.015625 19.535156 L 48.414062 19.535156 L 48.414062 24.746094 L 45.808594 24.746094 L 45.808594 19.535156 L 43.203125 19.535156 L 43.203125 24.746094 L 40.597656 24.746094 L 40.597656 19.535156 L 37.992188 19.535156 L 37.992188 24.746094 L 35.386719 24.746094 L 35.386719 19.535156 L 32.785156 19.535156 L 32.785156 24.746094 L 30.179688 24.746094 L 30.179688 19.535156 L 27.574219 19.535156 L 27.574219 24.746094 C 26.136719 24.746094 24.96875 25.914062 24.96875 27.351562 L 19.757812 27.351562 L 19.757812 29.957031 L 24.96875 29.957031 L 24.96875 32.558594 L 19.757812 32.558594 L 19.757812 35.164062 L 24.96875 35.164062 L 24.96875 37.769531 L 19.757812 37.769531 L 19.757812 40.375 L 24.96875 40.375 L 24.96875 42.980469 L 19.757812 42.980469 L 19.757812 45.585938 L 24.96875 45.585938 L 24.96875 48.1875 L 19.757812 48.1875 L 19.757812 50.792969 L 24.96875 50.792969 L 24.96875 53.398438 L 19.757812 53.398438 L 19.757812 56.003906 L 24.96875 56.003906 C 24.96875 57.441406 26.136719 58.609375 27.574219 58.609375 L 27.574219 63.816406 L 30.179688 63.816406 L 30.179688 58.609375 L 32.785156 58.609375 L 32.785156 63.816406 L 35.386719 63.816406 L 35.386719 58.609375 L 37.992188 58.609375 L 37.992188 63.816406 L 40.597656 63.816406 L 40.597656 58.609375 L 43.203125 58.609375 Z M 49.714844 31.257812 C 51.152344 31.257812 52.320312 32.421875 52.320312 33.863281 C 52.320312 35.300781 51.152344 36.46875 49.714844 36.46875 C 48.277344 36.46875 47.109375 35.300781 47.109375 33.863281 C 47.109375 32.421875 48.277344 31.257812 49.714844 31.257812 Z M 34.085938 52.097656 C 32.648438 52.097656 31.480469 50.929688 31.480469 49.492188 C 31.480469 48.050781 32.648438 46.886719 34.085938 46.886719 C 35.523438 46.886719 36.691406 48.050781 36.691406 49.492188 C 36.691406 50.929688 35.523438 52.097656 34.085938 52.097656 Z M 35.386719 35.164062 L 35.386719 42.980469 L 32.785156 42.980469 L 32.785156 32.558594 L 43.203125 32.558594 L 43.203125 35.164062 Z M 40.597656 50.792969 L 40.597656 48.1875 L 48.414062 48.1875 L 48.414062 40.375 L 51.015625 40.375 L 51.015625 50.792969 Z M 40.597656 50.792969 " fill-opacity="1" fill-rule="nonzero"/><path fill="#ffffff" d="M 58.832031 9.117188 L 61.4375 9.117188 L 61.4375 14.328125 L 79.671875 14.328125 L 79.671875 1.300781 L 61.4375 1.300781 L 61.4375 6.511719 L 58.832031 6.511719 L 58.832031 1.300781 L 40.597656 1.300781 L 40.597656 14.328125 L 58.832031 14.328125 Z M 71.855469 6.511719 L 74.460938 6.511719 L 74.460938 9.117188 L 71.855469 9.117188 Z M 66.644531 6.511719 L 69.25 6.511719 L 69.25 9.117188 L 66.644531 9.117188 Z M 48.414062 9.117188 L 45.808594 9.117188 L 45.808594 6.511719 L 48.414062 6.511719 Z M 53.621094 9.117188 L 51.015625 9.117188 L 51.015625 6.511719 L 53.621094 6.511719 Z M 53.621094 9.117188 " fill-opacity="1" fill-rule="nonzero"/><path fill="#ffffff" d="M 17.15625 63.816406 L 14.550781 63.816406 L 14.550781 66.421875 L 11.945312 66.421875 L 11.945312 63.816406 L 9.339844 63.816406 L 9.339844 66.421875 L 6.734375 66.421875 L 6.734375 63.816406 L 4.128906 63.816406 L 4.128906 66.421875 L 1.527344 66.421875 L 1.527344 79.445312 L 4.128906 79.445312 L 4.128906 82.050781 L 6.734375 82.050781 L 6.734375 79.445312 L 9.339844 79.445312 L 9.339844 82.050781 L 11.945312 82.050781 L 11.945312 79.445312 L 14.550781 79.445312 L 14.550781 82.050781 L 17.15625 82.050781 L 17.15625 79.445312 L 19.757812 79.445312 L 19.757812 66.421875 L 17.15625 66.421875 Z M 9.339844 74.238281 L 6.734375 74.238281 L 6.734375 71.632812 L 9.339844 71.632812 Z M 14.550781 74.238281 L 11.945312 74.238281 L 11.945312 71.632812 L 14.550781 71.632812 Z M 14.550781 74.238281 " fill-opacity="1" fill-rule="nonzero"/><path fill="#ffffff" d="M 82.273438 78.144531 C 82.273438 78.664062 82.175781 79.160156 81.976562 79.640625 C 81.78125 80.117188 81.496094 80.542969 81.128906 80.90625 C 80.765625 81.273438 80.34375 81.554688 79.863281 81.753906 C 79.382812 81.953125 78.886719 82.050781 78.367188 82.050781 C 77.851562 82.050781 77.351562 81.953125 76.871094 81.753906 C 76.394531 81.554688 75.972656 81.273438 75.605469 80.90625 C 75.238281 80.542969 74.957031 80.117188 74.757812 79.640625 C 74.558594 79.160156 74.460938 78.664062 74.460938 78.144531 C 74.460938 77.625 74.558594 77.128906 74.757812 76.648438 C 74.957031 76.171875 75.238281 75.75 75.605469 75.382812 C 75.972656 75.015625 76.394531 74.734375 76.871094 74.535156 C 77.351562 74.335938 77.851562 74.238281 78.367188 74.238281 C 78.886719 74.238281 79.382812 74.335938 79.863281 74.535156 C 80.34375 74.734375 80.765625 75.015625 81.128906 75.382812 C 81.496094 75.75 81.78125 76.171875 81.976562 76.648438 C 82.175781 77.128906 82.273438 77.625 82.273438 78.144531 Z M 82.273438 78.144531 " fill-opacity="1" fill-rule="nonzero"/><path fill="#ffffff" d="M 53.621094 76.84375 L 71.855469 76.84375 L 71.855469 79.445312 L 53.621094 79.445312 Z M 53.621094 76.84375 " fill-opacity="1" fill-rule="nonzero"/><path fill="#ffffff" d="M 77.066406 71.632812 L 79.671875 71.632812 L 79.671875 40.375 L 74.222656 40.375 C 73.683594 38.863281 72.25 37.769531 70.554688 37.769531 C 68.398438 37.769531 66.644531 39.523438 66.644531 41.675781 C 66.644531 43.832031 68.398438 45.585938 70.554688 45.585938 C 72.25 45.585938 73.683594 44.492188 74.222656 42.980469 L 77.066406 42.980469 Z M 77.066406 71.632812 " fill-opacity="1" fill-rule="nonzero"/><path fill="#ffffff" d="M 69.25 71.632812 L 43.203125 71.632812 L 43.203125 74.238281 L 71.855469 74.238281 L 71.855469 48.1875 L 69.25 48.1875 Z M 69.25 71.632812 " fill-opacity="1" fill-rule="nonzero"/><path fill="#ffffff" d="M 69.25 16.929688 L 71.855469 16.929688 L 71.855469 35.164062 L 69.25 35.164062 Z M 69.25 16.929688 " fill-opacity="1" fill-rule="nonzero"/><path fill="#ffffff" d="M 82.273438 33.863281 C 82.273438 34.378906 82.175781 34.878906 81.976562 35.359375 C 81.78125 35.835938 81.496094 36.257812 81.128906 36.625 C 80.765625 36.992188 80.34375 37.273438 79.863281 37.472656 C 79.382812 37.671875 78.886719 37.769531 78.367188 37.769531 C 77.851562 37.769531 77.351562 37.671875 76.871094 37.472656 C 76.394531 37.273438 75.972656 36.992188 75.605469 36.625 C 75.238281 36.257812 74.957031 35.835938 74.757812 35.359375 C 74.558594 34.878906 74.460938 34.378906 74.460938 33.863281 C 74.460938 33.34375 74.558594 32.847656 74.757812 32.367188 C 74.957031 31.890625 75.238281 31.464844 75.605469 31.101562 C 75.972656 30.734375 76.394531 30.449219 76.871094 30.253906 C 77.351562 30.054688 77.851562 29.957031 78.367188 29.957031 C 78.886719 29.957031 79.382812 30.054688 79.863281 30.253906 C 80.34375 30.449219 80.765625 30.734375 81.128906 31.101562 C 81.496094 31.464844 81.78125 31.890625 81.976562 32.367188 C 82.175781 32.847656 82.273438 33.34375 82.273438 33.863281 Z M 82.273438 33.863281 " fill-opacity="1" fill-rule="nonzero"/><path fill="#ffffff" d="M 77.066406 16.929688 L 79.671875 16.929688 L 79.671875 27.351562 L 77.066406 27.351562 Z M 77.066406 16.929688 " fill-opacity="1" fill-rule="nonzero"/><path fill="#ffffff" d="M 9.339844 57.304688 C 9.339844 57.824219 9.242188 58.324219 9.042969 58.800781 C 8.84375 59.28125 8.5625 59.703125 8.195312 60.070312 C 7.828125 60.433594 7.40625 60.71875 6.929688 60.914062 C 6.449219 61.113281 5.949219 61.214844 5.433594 61.214844 C 4.914062 61.214844 4.417969 61.113281 3.9375 60.914062 C 3.460938 60.71875 3.035156 60.433594 2.671875 60.070312 C 2.304688 59.703125 2.019531 59.28125 1.824219 58.800781 C 1.625 58.324219 1.527344 57.824219 1.527344 57.304688 C 1.527344 56.789062 1.625 56.289062 1.824219 55.8125 C 2.019531 55.332031 2.304688 54.910156 2.671875 54.542969 C 3.035156 54.175781 3.460938 53.894531 3.9375 53.695312 C 4.417969 53.496094 4.914062 53.398438 5.433594 53.398438 C 5.949219 53.398438 6.449219 53.496094 6.929688 53.695312 C 7.40625 53.894531 7.828125 54.175781 8.195312 54.542969 C 8.5625 54.910156 8.84375 55.332031 9.042969 55.8125 C 9.242188 56.289062 9.339844 56.789062 9.339844 57.304688 Z M 9.339844 57.304688 " fill-opacity="1" fill-rule="nonzero"/><path fill="#ffffff" d="M 14.550781 27.351562 L 11.945312 27.351562 L 11.945312 31.257812 L 4.128906 31.257812 L 4.128906 50.792969 L 6.734375 50.792969 L 6.734375 33.863281 L 14.550781 33.863281 Z M 14.550781 27.351562 " fill-opacity="1" fill-rule="nonzero"/><path fill="#ffffff" d="M 17.15625 40.375 C 17.15625 40.894531 17.054688 41.390625 16.855469 41.871094 C 16.660156 42.347656 16.375 42.769531 16.011719 43.136719 C 15.644531 43.503906 15.222656 43.785156 14.742188 43.984375 C 14.265625 44.183594 13.765625 44.28125 13.246094 44.28125 C 12.730469 44.28125 12.230469 44.183594 11.753906 43.984375 C 11.273438 43.785156 10.851562 43.503906 10.484375 43.136719 C 10.117188 42.769531 9.835938 42.347656 9.636719 41.871094 C 9.4375 41.390625 9.339844 40.894531 9.339844 40.375 C 9.339844 39.855469 9.4375 39.359375 9.636719 38.878906 C 9.835938 38.402344 10.117188 37.976562 10.484375 37.613281 C 10.851562 37.246094 11.273438 36.964844 11.753906 36.765625 C 12.230469 36.566406 12.730469 36.46875 13.246094 36.46875 C 13.765625 36.46875 14.265625 36.566406 14.742188 36.765625 C 15.222656 36.964844 15.644531 37.246094 16.011719 37.613281 C 16.375 37.976562 16.660156 38.402344 16.855469 38.878906 C 17.054688 39.359375 17.15625 39.855469 17.15625 40.375 Z M 17.15625 40.375 " fill-opacity="1" fill-rule="nonzero"/><path fill="#ffffff" d="M 11.945312 46.886719 L 14.550781 46.886719 L 14.550781 59.910156 L 11.945312 59.910156 Z M 11.945312 46.886719 " fill-opacity="1" fill-rule="nonzero"/><path fill="#ffffff" d="M 9.339844 5.210938 C 9.339844 5.726562 9.242188 6.226562 9.042969 6.703125 C 8.84375 7.183594 8.5625 7.605469 8.195312 7.972656 C 7.828125 8.339844 7.40625 8.621094 6.929688 8.820312 C 6.449219 9.019531 5.949219 9.117188 5.433594 9.117188 C 4.914062 9.117188 4.417969 9.019531 3.9375 8.820312 C 3.460938 8.621094 3.035156 8.339844 2.671875 7.972656 C 2.304688 7.605469 2.019531 7.183594 1.824219 6.703125 C 1.625 6.226562 1.527344 5.726562 1.527344 5.210938 C 1.527344 4.691406 1.625 4.191406 1.824219 3.714844 C 2.019531 3.234375 2.304688 2.8125 2.671875 2.445312 C 3.035156 2.082031 3.460938 1.796875 3.9375 1.601562 C 4.417969 1.402344 4.914062 1.300781 5.433594 1.300781 C 5.949219 1.300781 6.449219 1.402344 6.929688 1.601562 C 7.40625 1.796875 7.828125 2.082031 8.195312 2.445312 C 8.5625 2.8125 8.84375 3.234375 9.042969 3.714844 C 9.242188 4.191406 9.339844 4.691406 9.339844 5.210938 Z M 9.339844 5.210938 " fill-opacity="1" fill-rule="nonzero"/><path fill="#ffffff" d="M 37.992188 7.816406 C 37.992188 8.332031 37.894531 8.832031 37.695312 9.308594 C 37.496094 9.789062 37.214844 10.210938 36.847656 10.578125 C 36.484375 10.945312 36.058594 11.226562 35.582031 11.425781 C 35.101562 11.621094 34.605469 11.722656 34.085938 11.722656 C 33.566406 11.722656 33.070312 11.621094 32.589844 11.425781 C 32.113281 11.226562 31.691406 10.945312 31.324219 10.578125 C 30.957031 10.210938 30.675781 9.789062 30.476562 9.308594 C 30.277344 8.832031 30.179688 8.332031 30.179688 7.816406 C 30.179688 7.296875 30.277344 6.796875 30.476562 6.320312 C 30.675781 5.839844 30.957031 5.417969 31.324219 5.050781 C 31.691406 4.683594 32.113281 4.402344 32.589844 4.203125 C 33.070312 4.007812 33.566406 3.90625 34.085938 3.90625 C 34.605469 3.90625 35.101562 4.007812 35.582031 4.203125 C 36.058594 4.402344 36.484375 4.683594 36.847656 5.050781 C 37.214844 5.417969 37.496094 5.839844 37.695312 6.320312 C 37.894531 6.796875 37.992188 7.296875 37.992188 7.816406 Z M 37.992188 7.816406 " fill-opacity="1" fill-rule="nonzero"/><path fill="#ffffff" d="M 19.757812 18.234375 L 24.96875 18.234375 L 24.96875 9.117188 L 27.574219 9.117188 L 27.574219 6.511719 L 22.363281 6.511719 L 22.363281 15.628906 L 17.15625 15.628906 L 17.15625 24.746094 L 19.757812 24.746094 Z M 19.757812 18.234375 " fill-opacity="1" fill-rule="nonzero"/><path fill="#ffffff" d="M 6.734375 10.417969 L 4.128906 10.417969 L 4.128906 20.839844 L 11.945312 20.839844 L 11.945312 24.746094 L 14.550781 24.746094 L 14.550781 18.234375 L 6.734375 18.234375 Z M 6.734375 10.417969 " fill-opacity="1" fill-rule="nonzero"/><g fill="#ffffff" fill-opacity="1"><g transform="translate(89.093245, 63.806415)"><g><path d="M 1.34375 -42.984375 L 26.421875 -42.984375 C 26.578125 -42.984375 28.789062 -40.765625 33.0625 -36.328125 L 33.0625 -30.53125 C 33.0625 -30.3125 32.953125 -30.203125 32.734375 -30.203125 L 1.34375 -30.203125 C 1.113281 -30.203125 1 -30.3125 1 -30.53125 L 1 -42.640625 C 1.039062 -42.867188 1.15625 -42.984375 1.34375 -42.984375 Z M 1 -28.140625 L 13.96875 -28.140625 L 13.96875 -23.890625 L 20.109375 -23.890625 L 20.109375 -28.140625 L 33.0625 -28.140625 L 33.0625 -17.578125 C 33.0625 -17.421875 30.847656 -15.203125 26.421875 -10.921875 L 13.96875 -10.921875 L 13.96875 8.015625 L 10.734375 8.015625 L 10.734375 3.234375 L 8.5 3.234375 L 8.5 8.015625 L 6.296875 8.015625 L 6.296875 3.234375 L 4.078125 3.234375 L 4.078125 8.015625 L 1.34375 8.015625 C 1.113281 8.015625 1 7.898438 1 7.671875 Z M 16.984375 -13.8125 L 16.984375 -7.84375 L 19.203125 -7.84375 L 19.203125 -13.8125 Z M 22.09375 -13.8125 L 22.09375 -7.84375 L 24.328125 -7.84375 L 24.328125 -13.8125 Z M 22.09375 -13.8125 "/></g></g><g transform="translate(128.199851, 63.806415)"><g><path d="M 1.34375 -42.828125 L 25.734375 -42.828125 C 25.679688 -42.085938 25.054688 -40.945312 23.859375 -39.40625 L 1 -39.40625 L 1 -42.484375 C 1.039062 -42.710938 1.15625 -42.828125 1.34375 -42.828125 Z M 33.0625 -42.828125 C 33.289062 -42.785156 33.40625 -42.671875 33.40625 -42.484375 L 33.40625 -29.859375 L 13.96875 -29.859375 L 13.96875 -23.71875 L 28.8125 -23.71875 L 28.8125 -10.921875 L 13.96875 -10.921875 L 13.96875 -4.609375 L 33.40625 -4.609375 L 33.40625 -0.84375 C 33.375 -0.664062 30.367188 2.34375 24.390625 8.1875 L 1.34375 8.1875 C 1.113281 8.1875 1 8.070312 1 7.84375 L 1 -37.1875 C 1.039062 -37.414062 1.15625 -37.53125 1.34375 -37.53125 L 25.0625 -37.53125 C 26.769531 -41.0625 27.851562 -42.828125 28.3125 -42.828125 Z M 3.21875 0.34375 L 3.21875 6.3125 L 5.453125 6.3125 L 5.453125 0.34375 Z M 7.65625 0.34375 L 7.65625 6.3125 L 9.875 6.3125 L 9.875 0.34375 Z M 7.65625 0.34375 "/></g></g><g transform="translate(167.648263, 63.806415)"><g><path d="M 5.9375 -30.203125 L 1 -30.203125 L 1 -42.640625 C 1.039062 -42.867188 1.15625 -42.984375 1.34375 -42.984375 L 5.9375 -42.984375 Z M 1 -28.140625 L 16.359375 -28.140625 C 16.785156 -27.816406 19.578125 -22.875 24.734375 -13.3125 C 25.023438 -13.007812 29.003906 -5.898438 36.671875 8.015625 L 26.59375 8.015625 C 26.039062 7.472656 21.832031 0.140625 13.96875 -13.984375 L 13.796875 -13.984375 L 13.796875 8.015625 L 10.21875 8.015625 C 10.082031 8.015625 7.007812 4.945312 1 -1.1875 Z M 8.40625 -42.984375 L 13.625 -42.984375 C 15.3125 -40.390625 19.519531 -32.941406 26.25 -20.640625 L 26.421875 -20.640625 L 26.421875 -42.640625 C 26.453125 -42.867188 26.5625 -42.984375 26.75 -42.984375 L 29.15625 -42.984375 C 29.375 -42.953125 29.484375 -42.835938 29.484375 -42.640625 L 29.484375 -39.234375 L 31.71875 -39.234375 L 31.71875 -42.640625 C 31.75 -42.867188 31.859375 -42.984375 32.046875 -42.984375 L 33.59375 -42.984375 C 33.820312 -42.953125 33.9375 -42.835938 33.9375 -42.640625 L 33.9375 -39.234375 L 36.140625 -39.234375 L 36.140625 -42.640625 C 36.179688 -42.867188 36.296875 -42.984375 36.484375 -42.984375 L 38.875 -42.984375 C 39.101562 -42.953125 39.21875 -42.835938 39.21875 -42.640625 L 39.21875 8.015625 L 38.875 8.015625 L 17.546875 -30.203125 L 8.40625 -30.203125 Z M 8.40625 -42.984375 "/></g></g><g transform="translate(212.907373, 63.806415)"><g/></g><g transform="translate(229.37437, 63.806415)"><g><path d="M 1.34375 -42.828125 L 26.421875 -42.828125 C 26.566406 -42.828125 28.726562 -40.660156 32.90625 -36.328125 L 32.90625 -18.9375 L 20.109375 -18.9375 L 20.109375 -29.859375 L 13.96875 -29.859375 L 13.96875 -18.9375 L 1 -18.9375 L 1 -42.484375 C 1.039062 -42.710938 1.15625 -42.828125 1.34375 -42.828125 Z M 1 -16.890625 L 13.96875 -16.890625 L 13.96875 -4.609375 L 20.109375 -4.609375 L 20.109375 -16.890625 L 32.90625 -16.890625 L 32.90625 1.703125 C 32.90625 1.859375 30.742188 4.019531 26.421875 8.1875 L 1.34375 8.1875 C 1.113281 8.1875 1 8.070312 1 7.84375 Z M 3.734375 -1.53125 L 3.734375 4.4375 L 5.953125 4.4375 L 5.953125 -1.53125 Z M 8.15625 -1.53125 L 8.15625 4.4375 L 10.390625 4.4375 L 10.390625 -1.53125 Z M 8.15625 -1.53125 "/></g></g><g transform="translate(268.320126, 63.806415)"><g><path d="M 12.953125 -42.828125 L 19.765625 -42.828125 C 20.023438 -42.828125 20.878906 -39.414062 22.328125 -32.59375 L 30.171875 -0.15625 L 39.5625 -0.15625 C 40.8125 4.945312 41.4375 7.726562 41.4375 8.1875 L 27.28125 8.1875 L 25.734375 0.859375 L 16.703125 0.859375 C 15.703125 5.742188 15.070312 8.1875 14.8125 8.1875 L 7.8125 8.1875 L 7.8125 4.953125 L 5.609375 4.953125 L 5.609375 8.1875 L 1 8.1875 L 1 8.015625 C 1.226562 6.660156 5.210938 -10.285156 12.953125 -42.828125 Z M 22.328125 -42.828125 L 29.484375 -42.828125 L 39.046875 -2.21875 L 31.546875 -2.21875 C 30.984375 -5.132812 27.800781 -18.609375 22 -42.640625 Z M 21.125 -18.421875 L 19.765625 -11.9375 L 22.671875 -11.9375 C 22.671875 -12.289062 22.21875 -14.453125 21.3125 -18.421875 Z M 21.125 -18.421875 "/></g></g><g transform="translate(315.790921, 63.806415)"><g><path d="M -0.203125 -42.984375 L 12.921875 -42.984375 C 13.273438 -42.984375 14.53125 -40.023438 16.6875 -34.109375 C 16.863281 -34.085938 17.375 -32.835938 18.21875 -30.359375 L 18.5625 -30.359375 L 23.515625 -42.984375 L 26.421875 -42.984375 C 26.640625 -42.953125 26.75 -42.835938 26.75 -42.640625 L 26.75 -38.5625 L 28.96875 -38.5625 L 28.96875 -42.640625 C 29.007812 -42.867188 29.125 -42.984375 29.3125 -42.984375 L 30.5 -42.984375 C 30.726562 -42.953125 30.84375 -42.835938 30.84375 -42.640625 L 30.84375 -38.5625 L 33.0625 -38.5625 L 33.0625 -42.640625 C 33.09375 -42.867188 33.207031 -42.984375 33.40625 -42.984375 L 37.15625 -42.984375 L 37.15625 -42.828125 L 25.546875 -13.65625 L 25.546875 8.015625 L 16.53125 8.015625 L 16.53125 -15.859375 L 10.546875 -15.859375 C 10.242188 -15.992188 8.648438 -19.863281 5.765625 -27.46875 C 5.535156 -27.84375 3.429688 -32.960938 -0.546875 -42.828125 Z M 11.234375 -13.8125 L 14.640625 -13.8125 L 14.640625 8.015625 L 11.234375 8.015625 Z M 18.75 -0.203125 L 18.75 5.765625 L 20.96875 5.765625 L 20.96875 -0.203125 Z M 18.75 -0.203125 "/></g></g></g><g fill="#ffffff" fill-opacity="1"><g transform="translate(231.185359, 113.777733)"><g><path d="M 5.640625 -31.578125 L 9.171875 -31.578125 C 9.335938 -31.546875 9.421875 -31.460938 9.421875 -31.328125 L 9.421875 -19.75 L 0.734375 -19.75 L 0.734375 -26.671875 C 0.734375 -26.773438 2.367188 -28.410156 5.640625 -31.578125 Z M 10.921875 -31.578125 L 19.109375 -31.578125 C 19.585938 -31.578125 20.929688 -30.359375 23.140625 -27.921875 C 23.242188 -27.921875 23.617188 -27.539062 24.265625 -26.78125 L 24.265625 -12.84375 L 14.953125 -3.390625 L 24.265625 -3.390625 L 24.265625 6.03125 L 0.734375 6.03125 L 0.734375 -3.28125 L 14.828125 -17.5 L 14.828125 -22.015625 L 10.921875 -22.015625 Z M 17.734375 -2.140625 L 17.734375 2.265625 L 19.359375 2.265625 L 19.359375 -2.140625 Z M 20.734375 -2.140625 L 20.734375 2.265625 L 22.390625 2.265625 L 22.390625 -2.140625 Z M 20.734375 -2.140625 "/></g></g></g><g fill="#ffffff" fill-opacity="1"><g transform="translate(259.902919, 113.777733)"><g><path d="M 6.65625 -31.578125 L 19.359375 -31.578125 C 19.460938 -31.578125 21.097656 -29.941406 24.265625 -26.671875 L 24.265625 1.125 C 24.265625 1.238281 22.628906 2.875 19.359375 6.03125 L 5.515625 6.03125 C 5.398438 6.03125 3.804688 4.441406 0.734375 1.265625 L 0.734375 1.015625 C 3.285156 -1.648438 6.429688 -4.800781 10.171875 -8.4375 L 10.171875 -3.390625 L 14.703125 -3.390625 L 14.703125 -22.015625 L 11.5625 -22.015625 L 11.5625 -26.421875 L 6.65625 -31.4375 Z M 5.03125 -31.078125 L 10.171875 -25.796875 C 10.085938 -21.898438 10.046875 -18.878906 10.046875 -16.734375 L 10.046875 -10.4375 C 7.304688 -7.601562 4.203125 -4.5 0.734375 -1.125 L 0.734375 -26.78125 C 0.804688 -26.957031 2.238281 -28.390625 5.03125 -31.078125 Z M 15.96875 -8.046875 L 15.96875 -3.640625 L 17.59375 -3.640625 L 17.59375 -8.046875 Z M 15.96875 -8.046875 "/></g></g></g><g fill="#ffffff" fill-opacity="1"><g transform="translate(288.62048, 113.777733)"><g><path d="M 5.640625 -31.578125 L 9.171875 -31.578125 C 9.335938 -31.546875 9.421875 -31.460938 9.421875 -31.328125 L 9.421875 -19.75 L 0.734375 -19.75 L 0.734375 -26.671875 C 0.734375 -26.773438 2.367188 -28.410156 5.640625 -31.578125 Z M 10.921875 -31.578125 L 19.109375 -31.578125 C 19.585938 -31.578125 20.929688 -30.359375 23.140625 -27.921875 C 23.242188 -27.921875 23.617188 -27.539062 24.265625 -26.78125 L 24.265625 -12.84375 L 14.953125 -3.390625 L 24.265625 -3.390625 L 24.265625 6.03125 L 0.734375 6.03125 L 0.734375 -3.28125 L 14.828125 -17.5 L 14.828125 -22.015625 L 10.921875 -22.015625 Z M 17.734375 -2.140625 L 17.734375 2.265625 L 19.359375 2.265625 L 19.359375 -2.140625 Z M 20.734375 -2.140625 L 20.734375 2.265625 L 22.390625 2.265625 L 22.390625 -2.140625 Z M 20.734375 -2.140625 "/></g></g></g><g fill="#ffffff" fill-opacity="1"><g transform="translate(317.338041, 113.777733)"><g><path d="M 1 -31.578125 L 17.84375 -31.578125 L 17.84375 -31.4375 C 15.5625 -28.925781 14.179688 -27.671875 13.703125 -27.671875 L 1 -27.671875 C 0.820312 -27.671875 0.734375 -27.753906 0.734375 -27.921875 L 0.734375 -31.328125 C 0.765625 -31.492188 0.851562 -31.578125 1 -31.578125 Z M 24.015625 -31.578125 C 24.179688 -31.546875 24.265625 -31.460938 24.265625 -31.328125 L 24.265625 -22.015625 L 10.171875 -22.015625 L 10.171875 -19.625 L 19.484375 -19.625 C 19.585938 -19.625 21.179688 -18.03125 24.265625 -14.84375 L 24.265625 1.265625 C 24.265625 1.367188 22.671875 2.957031 19.484375 6.03125 L 17.984375 6.03125 L 17.984375 3.03125 L 16.34375 3.03125 L 16.34375 6.03125 L 14.953125 6.03125 L 14.953125 3.03125 L 13.328125 3.03125 L 13.328125 6.03125 L 5.515625 6.03125 C 5.398438 6.03125 3.804688 4.441406 0.734375 1.265625 L 0.734375 -8.046875 L 10.171875 -8.046875 L 10.171875 -3.390625 L 14.828125 -3.390625 L 14.828125 -10.1875 L 0.734375 -10.1875 L 0.734375 -26.296875 L 14.703125 -26.296875 C 18.253906 -29.816406 20.097656 -31.578125 20.234375 -31.578125 Z M 24.015625 -31.578125 "/></g></g></g></svg>