<svg xmlns="http://www.w3.org/2000/svg" version="1.0" width="2400.000000pt" height="2400.000000pt" viewBox="0 0 2400.000000 2400.000000" preserveAspectRatio="xMidYMid meet">

<g transform="translate(0.000000,2400.000000) scale(0.100000,-0.100000)" fill="#000000" stroke="none">
<path d="M11700 23227 c-3 -2 -57 -7 -120 -11 -301 -18 -657 -86 -870 -166 -62 -23 -96 -29 -200 -34 -662 -30 -1864 -390 -2345 -703 -49 -32 -126 -71 -170 -87 -181 -63 -403 -189 -575 -327 -156 -124 -375 -358 -472 -503 -16 -23 -55 -48 -147 -93 -134 -65 -294 -166 -401 -252 -88 -70 -265 -246 -336 -335 -52 -64 -70 -78 -149 -117 -473 -233 -836 -626 -1015 -1101 l-33 -87 -97 -65 c-283 -188 -537 -447 -703 -716 -59 -96 -147 -283 -181 -383 -58 -173 -106 -412 -106 -529 0 -39 -6 -47 -128 -172 -295 -304 -486 -634 -576 -996 -27 -107 -56 -302 -56 -372 0 -21 -7 -49 -15 -62 -40 -61 -154 -702 -200 -1126 -43 -401 -50 -549 -49 -1015 1 -411 12 -624 49 -978 23 -215 31 -251 60 -287 9 -11 10 -33 4 -80 -11 -99 -3 -414 14 -511 46 -257 142 -521 262 -719 30 -50 34 -63 29 -101 -5 -37 4 -72 51 -209 165 -479 629 -1519 712 -1596 14 -13 44 -26 67 -29 l43 -7 22 -77 c34 -119 121 -318 192 -441 178 -309 431 -570 746 -768 l122 -77 22 -60 c61 -171 191 -406 315 -572 80 -105 241 -271 341 -351 46 -36 83 -68 83 -71 0 -4 -8 -7 -17 -7 -33 -1 -267 -15 -308 -19 -22 -2 -76 -7 -120 -10 -44 -3 -96 -8 -115 -10 -19 -2 -111 -11 -205 -20 -1256 -117 -3041 -460 -4200 -806 -189 -56 -785 -253 -785 -259 0 -3 339 -124 753 -269 413 -145 756 -267 760 -271 4 -4 -94 -298 -219 -654 -124 -356 -224 -649 -221 -652 3 -3 99 28 213 69 1161 416 3033 788 4484 892 588 42 1214 39 1900 -10 179 -13 451 -39 630 -61 25 -3 59 -7 75 -9 627 -76 1235 -196 1896 -375 141 -39 261 -70 266 -70 4 0 -212 220 -482 490 -269 269 -487 491 -484 494 8 9 282 82 453 121 262 60 667 130 881 151 39 3 78 8 88 10 10 2 118 11 240 21 422 33 1080 23 1507 -23 247 -27 444 -55 630 -90 258 -48 771 -172 790 -190 2 -3 -216 -226 -485 -495 -270 -270 -481 -489 -470 -486 307 83 589 156 735 191 569 137 1304 253 1935 306 72 6 155 13 185 15 266 23 1028 47 1270 40 374 -11 576 -23 875 -50 193 -18 244 -23 355 -36 47 -5 108 -12 135 -15 146 -15 600 -79 815 -115 1157 -190 2164 -433 2938 -709 112 -39 205 -70 208 -68 2 3 -99 298 -224 656 l-229 651 36 14 c20 8 363 128 763 268 400 140 728 257 728 260 0 6 -598 202 -805 263 -1290 379 -3050 707 -4400 821 -33 3 -80 7 -105 10 -131 14 -454 35 -527 35 -40 0 -73 4 -73 9 0 5 26 28 58 52 82 61 268 250 339 345 129 171 244 374 322 570 l32 81 95 59 c457 282 785 691 945 1176 40 121 44 128 69 128 59 0 91 36 177 205 223 435 492 1063 633 1475 38 109 42 129 33 162 -8 29 -7 42 5 59 69 99 175 334 226 503 67 220 96 504 75 735 -7 84 -6 97 10 120 10 14 21 35 24 46 8 25 43 348 52 475 4 52 9 113 11 135 8 81 19 477 19 685 0 388 -26 755 -86 1195 -42 310 -136 800 -163 854 -8 15 -18 63 -21 107 -21 259 -85 492 -200 729 -109 225 -290 472 -473 647 l-80 76 -7 84 c-28 326 -136 647 -310 918 -164 254 -432 519 -703 695 -40 26 -76 54 -79 63 -29 85 -77 195 -121 280 -197 385 -510 686 -927 895 -72 36 -97 54 -123 91 -53 74 -236 259 -335 340 -135 109 -274 199 -422 271 -105 52 -135 71 -155 102 -47 70 -163 208 -249 297 -228 234 -498 413 -783 520 -54 20 -138 62 -190 96 -399 258 -1302 555 -2008 660 -104 16 -170 31 -231 56 -201 79 -501 138 -924 179 -74 8 -788 18 -795 12z m755 -251 c17 -2 62 -7 100 -11 253 -23 498 -66 668 -116 106 -32 235 -91 243 -113 10 -26 -159 -515 -289 -832 -244 -594 -484 -1022 -709 -1259 -227 -240 -398 -293 -628 -197 -339 143 -699 655 -1015 1447 -74 186 -199 554 -239 705 l-25 95 26 22 c31 25 133 76 219 109 166 62 476 121 784 148 145 13 784 15 865 2z m-2140 -263 c32 -218 225 -796 390 -1167 144 -324 341 -672 472 -834 20 -24 33 -45 31 -47 -5 -6 -254 75 -436 141 -686 249 -1436 617 -1947 957 -138 92 -342 247 -420 319 l-69 65 86 47 c379 206 1063 425 1678 536 216 39 206 40 215 -17z m3563 -9 c596 -123 1179 -318 1561 -524 l64 -34 -64 -59 c-75 -69 -285 -228 -414 -314 -557 -372 -1267 -719 -2019 -989 -83 -30 -151 -52 -153 -51 -1 2 14 28 34 58 181 267 404 723 588 1204 59 155 198 562 229 673 11 40 22 62 32 62 8 0 72 -12 142 -26z m-5659 -765 c151 -144 450 -361 709 -517 l84 -50 -94 -82 c-127 -111 -307 -230 -463 -307 -138 -67 -162 -74 -150 -45 4 9 34 97 66 194 75 226 76 273 6 347 -64 68 -118 76 -462 75 -239 -1 -372 -13 -530 -49 -32 -8 -61 -13 -62 -11 -6 6 148 155 222 216 93 76 232 168 325 215 78 40 229 104 244 105 4 0 51 -41 105 -91z m7597 55 c210 -84 410 -215 590 -387 63 -60 113 -111 112 -113 -2 -1 -44 6 -93 16 -225 46 -546 62 -780 40 -117 -12 -175 -41 -212 -105 -38 -68 -32 -123 41 -340 36 -104 64 -191 63 -192 -1 -1 -54 22 -117 51 -182 82 -384 217 -524 349 l-67 62 143 88 c266 164 511 345 665 492 43 41 81 74 84 75 4 0 46 -16 95 -36z m-7651 -686 c19 -19 -122 -390 -219 -573 -70 -133 -53 -119 -240 -205 -355 -163 -681 -459 -894 -811 -43 -72 -51 -80 -100 -99 -29 -11 -55 -20 -57 -20 -3 0 4 23 15 51 87 219 154 549 166 814 3 66 7 138 8 160 9 129 -80 215 -208 201 -29 -3 -75 -10 -101 -16 -26 -6 -49 -9 -51 -8 -6 6 124 107 216 168 290 190 586 290 1025 344 53 6 433 1 440 -6z m8095 -13 c399 -61 768 -218 1035 -440 48 -40 62 -56 45 -52 -14 4 -62 12 -106 19 -72 10 -87 10 -127 -6 -92 -35 -121 -100 -112 -253 19 -353 54 -558 141 -822 24 -74 43 -135 41 -137 -1 -1 -25 7 -53 17 -47 18 -54 25 -121 132 -228 360 -564 650 -928 803 -60 26 -114 54 -120 63 -74 118 -185 368 -251 561 l-42 125 37 7 c64 12 450 0 561 -17z m-6652 -243 c163 -81 396 -190 517 -241 121 -52 222 -96 225 -99 10 -9 -229 -229 -327 -301 -262 -193 -551 -319 -851 -371 -63 -11 -116 -20 -117 -20 -2 0 19 49 45 110 27 60 70 169 95 242 41 115 46 141 42 190 -5 62 -24 93 -74 128 -60 41 -177 55 -473 55 l-205 0 114 58 c139 71 244 138 376 243 89 70 112 83 210 116 61 21 114 38 118 38 4 0 142 -67 305 -148z m5047 110 c97 -33 120 -45 190 -103 107 -89 277 -199 405 -262 l105 -52 -235 0 c-413 -1 -505 -35 -525 -193 -5 -34 69 -255 136 -407 28 -65 49 -118 47 -120 -2 -2 -53 5 -113 15 -407 70 -782 271 -1109 595 l-78 77 138 58 c226 93 384 166 649 301 138 69 257 127 265 127 8 1 65 -15 125 -36z m-1062 -861 c194 -157 483 -319 692 -390 171 -57 369 -99 560 -117 70 -6 71 -7 95 -48 41 -72 150 -218 237 -319 190 -218 412 -389 686 -527 l149 -75 42 -105 c129 -320 302 -579 545 -813 l101 -98 10 -102 c54 -535 253 -977 611 -1352 79 -82 90 -98 85 -120 -50 -201 -66 -533 -36 -757 24 -176 104 -469 155 -569 14 -27 14 -27 -29 -38 -28 -7 -54 -22 -70 -42 -25 -30 -26 -35 -27 -177 0 -81 -2 -163 -3 -182 -2 -19 -7 -98 -11 -175 -5 -77 -9 -142 -10 -145 -1 -3 -5 -41 -9 -85 -11 -118 -53 -391 -82 -540 -69 -351 -296 -1031 -468 -1399 -57 -122 -58 -153 -11 -223 l35 -52 -48 -32 c-168 -115 -371 -298 -497 -449 -158 -189 -297 -441 -376 -680 l-42 -129 -61 -22 c-184 -68 -373 -164 -536 -272 -231 -154 -468 -391 -606 -607 -15 -25 -28 -46 -29 -46 0 -1 -74 -9 -165 -19 -253 -25 -466 -73 -662 -148 l-67 -26 -65 197 c-382 1162 -692 2672 -866 4212 -16 146 -32 283 -35 305 -8 65 -53 520 -80 805 -26 273 -60 695 -71 880 -3 58 -8 119 -10 135 -3 17 -7 220 -9 453 -5 507 -17 602 -80 618 -22 5 -14 11 68 48 118 54 197 103 287 178 204 172 350 461 367 731 l6 97 -623 0 -624 0 45 28 c96 61 187 195 225 328 23 81 27 331 8 439 -34 186 -112 411 -220 632 l-72 148 -70 -145 c-160 -332 -235 -602 -235 -845 0 -248 75 -427 226 -541 l59 -44 -618 0 -617 0 6 -107 c13 -248 131 -499 316 -676 113 -108 216 -174 371 -239 36 -15 57 -27 48 -27 -32 -1 -56 -38 -73 -112 -15 -62 -18 -138 -21 -469 -2 -217 -5 -411 -8 -430 -2 -19 -7 -87 -10 -150 -4 -63 -9 -137 -11 -165 -3 -27 -9 -113 -15 -190 -13 -171 -17 -229 -30 -370 -6 -60 -15 -162 -20 -225 -6 -63 -17 -180 -25 -260 -8 -80 -17 -165 -20 -190 -8 -87 -45 -435 -50 -475 -2 -22 -16 -139 -30 -260 -152 -1326 -428 -2714 -751 -3790 -46 -153 -184 -577 -190 -584 -1 -1 -56 20 -121 47 -262 112 -497 166 -852 197 -36 3 -65 6 -66 8 -1 1 -21 31 -45 67 -243 364 -597 641 -1068 835 l-123 50 -44 131 c-147 443 -431 814 -848 1108 -41 29 -64 52 -60 59 4 7 17 26 31 44 44 59 40 93 -23 233 -172 379 -378 987 -450 1330 -77 365 -119 746 -124 1115 -3 235 -7 248 -88 280 l-51 21 24 59 c69 170 125 390 145 577 17 155 6 475 -21 620 l-22 118 96 102 c252 272 411 544 512 876 46 152 92 409 93 519 1 40 6 47 129 170 145 144 210 224 313 380 75 114 178 317 225 444 l28 76 136 65 c295 144 558 355 769 618 58 72 155 210 196 277 0 1 28 5 60 8 594 58 1058 281 1483 714 l114 115 46 -17 c166 -61 520 -175 707 -227 171 -48 246 -75 340 -121 142 -69 208 -88 335 -95 165 -10 317 44 475 169 65 51 95 67 160 86 95 28 574 190 593 200 9 5 57 -35 145 -124 73 -72 167 -160 210 -194z m3882 244 c251 -72 521 -212 720 -375 181 -148 359 -368 459 -567 50 -101 53 -113 31 -113 -21 0 -81 -56 -94 -87 -36 -91 -131 -483 -131 -543 0 -24 -22 -26 -41 -3 -20 23 -190 151 -274 204 -160 103 -423 234 -544 270 -35 10 -47 22 -75 68 -178 296 -284 670 -311 1103 l-7 106 88 -19 c49 -10 130 -30 179 -44z m-10850 8 c-2 -27 -6 -88 -9 -138 -4 -49 -8 -101 -10 -115 -3 -14 -10 -59 -16 -100 -45 -291 -138 -559 -274 -791 -33 -57 -44 -68 -80 -79 -76 -23 -271 -111 -381 -172 -130 -72 -279 -172 -390 -261 l-80 -64 -31 156 c-34 170 -87 365 -115 423 -18 35 -66 78 -88 78 -21 0 -11 34 40 128 254 476 684 800 1264 952 61 16 124 29 141 30 32 0 32 0 29 -47z m2322 -39 c53 -6 54 -7 48 -33 -13 -53 -89 -240 -145 -356 -202 -420 -492 -748 -844 -954 -48 -29 -90 -50 -93 -48 -2 3 5 49 16 103 26 134 52 350 54 465 2 112 -15 157 -75 196 -71 48 -166 43 -437 -23 -79 -19 -192 -53 -252 -74 -60 -21 -109 -36 -109 -34 0 15 130 161 222 249 137 132 262 220 433 305 244 121 502 190 800 213 63 5 321 -1 382 -9z m6448 -3 c208 -26 366 -67 550 -142 233 -96 413 -216 595 -399 129 -129 211 -231 174 -216 -195 81 -540 165 -672 166 -86 0 -146 -39 -178 -115 -13 -32 -15 -59 -10 -140 10 -154 25 -278 51 -415 12 -69 21 -127 19 -129 -6 -7 -192 108 -276 172 -160 120 -356 327 -477 505 -65 96 -168 286 -226 417 -62 140 -112 281 -104 290 3 3 42 8 85 11 43 4 80 8 82 9 8 7 305 -4 387 -14z m-7641 -878 c-14 -147 -37 -309 -60 -423 -57 -280 -184 -587 -332 -810 -74 -110 -205 -270 -222 -270 -6 0 -10 21 -10 48 0 26 -7 105 -15 176 -12 104 -20 139 -41 174 -28 48 -85 81 -140 82 -41 0 -137 -30 -258 -80 -53 -22 -97 -40 -99 -40 -2 0 -7 78 -10 173 -3 96 -13 234 -23 308 l-17 134 73 67 c189 175 459 328 746 423 119 39 299 81 401 94 9 1 11 -14 7 -56z m8521 21 c363 -80 725 -263 978 -495 l59 -54 -17 -120 c-9 -66 -19 -206 -22 -311 l-6 -192 -72 33 c-104 48 -247 95 -286 95 -53 -1 -115 -34 -143 -77 -25 -38 -48 -165 -60 -331 -2 -35 -6 -66 -9 -68 -15 -16 -199 220 -284 364 -166 282 -288 671 -318 1012 -3 36 -8 91 -11 123 l-6 58 43 -7 c24 -3 94 -17 154 -30z m-11176 -519 c63 -248 91 -448 91 -668 0 -331 -62 -606 -200 -885 -64 -129 -72 -141 -132 -187 -34 -27 -126 -112 -204 -187 l-141 -138 -13 58 c-39 178 -147 486 -221 634 -16 31 -45 69 -64 84 -45 34 -115 43 -168 21 -20 -9 -37 -14 -37 -13 0 25 46 215 70 291 124 388 408 751 789 1008 104 70 185 115 192 108 4 -3 21 -60 38 -126z m13782 74 c269 -163 516 -399 675 -645 110 -171 191 -359 240 -559 29 -123 31 -150 7 -140 -35 14 -101 17 -135 6 -19 -6 -48 -26 -65 -44 -57 -59 -178 -361 -239 -594 -19 -76 -37 -143 -39 -150 -2 -7 -59 43 -127 111 -68 68 -159 152 -203 189 -73 59 -86 75 -132 164 -101 195 -168 406 -198 623 -18 133 -21 437 -4 575 22 187 101 515 124 515 6 0 50 -23 96 -51z m-12576 -229 c18 -126 32 -608 18 -626 -4 -6 -42 -33 -84 -61 -318 -214 -587 -525 -735 -850 l-35 -77 -34 85 c-39 96 -91 152 -151 164 -28 5 -34 10 -29 23 89 221 155 564 155 809 l0 82 73 70 c192 185 437 345 700 457 56 24 103 42 104 41 1 -2 9 -54 18 -117z m11470 20 c209 -101 415 -244 578 -399 l77 -74 0 -104 c0 -207 42 -463 109 -656 21 -62 41 -119 45 -128 6 -13 -2 -19 -36 -27 -27 -7 -56 -25 -80 -49 -32 -33 -46 -60 -90 -172 -8 -23 -14 -15 -62 85 -165 341 -380 578 -789 866 -16 11 -19 31 -21 168 -2 140 12 380 29 485 3 22 8 54 11 71 l5 32 52 -20 c28 -11 106 -46 172 -78z m-10871 -695 c14 -117 18 -464 7 -580 -33 -317 -108 -564 -253 -825 -88 -157 -279 -404 -298 -383 -4 4 -22 49 -40 98 -44 120 -137 325 -189 413 -45 77 -83 107 -149 118 -62 10 -126 -27 -260 -147 -63 -55 -115 -99 -117 -97 -1 1 -7 25 -13 52 -9 41 -6 62 15 139 112 411 386 777 769 1032 177 117 500 269 515 242 4 -7 10 -34 13 -62z m10139 39 c486 -191 888 -551 1083 -970 76 -165 118 -298 118 -381 0 -40 -4 -77 -9 -82 -6 -6 -47 23 -110 80 -55 49 -117 101 -137 115 -74 52 -164 51 -227 -2 -46 -39 -173 -295 -246 -499 -18 -49 -37 -90 -43 -90 -15 0 -146 156 -210 252 -234 349 -343 725 -343 1187 0 164 17 426 27 426 2 0 46 -16 97 -36z m-12895 -826 c101 -248 153 -445 189 -718 12 -95 6 -379 -10 -490 -30 -198 -94 -405 -178 -572 l-39 -78 -203 101 c-208 105 -410 211 -578 306 -93 52 -96 55 -93 86 1 17 5 64 8 103 32 392 243 819 566 1144 85 86 265 239 281 240 4 0 29 -55 57 -122z m15677 63 c33 -25 111 -95 174 -156 273 -265 455 -564 541 -890 33 -124 60 -289 60 -367 l0 -53 -193 -105 c-244 -132 -677 -353 -683 -348 -2 2 -24 49 -50 103 -200 429 -235 907 -104 1402 31 115 90 288 130 378 12 28 26 60 31 73 10 27 10 27 94 -37z m-14541 -412 c50 -152 96 -329 116 -457 9 -53 9 -54 -37 -115 -115 -157 -231 -386 -297 -588 -68 -209 -93 -358 -95 -574 -1 -76 -4 -141 -6 -143 -11 -11 -655 264 -655 280 0 4 17 43 39 86 135 269 211 607 211 937 l0 151 67 84 c137 173 330 354 507 475 61 42 82 52 88 41 4 -7 32 -87 62 -177z m13470 101 c179 -133 358 -309 481 -473 l47 -62 -6 -71 c-13 -164 26 -471 88 -685 29 -100 93 -264 137 -351 17 -33 29 -61 27 -63 -27 -23 -645 -281 -654 -273 -1 2 -4 57 -5 123 -2 158 -14 266 -45 403 -56 252 -161 496 -309 718 l-85 127 16 91 c28 163 84 368 146 529 l30 77 27 -16 c15 -9 62 -42 105 -74z m-12744 -482 c169 -357 248 -664 255 -993 4 -173 -5 -274 -36 -430 -34 -165 -124 -425 -149 -425 -30 0 -490 133 -716 207 l-172 56 -7 107 c-14 225 25 478 110 705 76 203 203 418 351 596 57 68 289 299 301 299 2 0 31 -55 63 -122z m11967 44 c355 -313 604 -766 663 -1205 11 -84 14 -385 4 -411 -9 -24 -696 -239 -867 -271 l-34 -7 -35 94 c-169 441 -182 883 -42 1344 54 181 202 524 226 524 4 0 43 -31 85 -68z m-5891 -1027 c25 -225 47 -426 49 -445 23 -199 37 -310 40 -335 2 -16 9 -77 15 -135 9 -89 19 -171 55 -475 3 -22 16 -134 30 -250 14 -115 28 -228 30 -250 3 -22 14 -112 25 -200 11 -88 33 -272 50 -409 17 -137 33 -263 35 -280 3 -17 23 -175 45 -351 22 -176 51 -401 65 -500 13 -99 38 -281 55 -405 175 -1283 334 -2223 448 -2661 l38 -146 -68 -79 c-38 -43 -75 -85 -82 -92 -10 -10 -24 -7 -75 13 -97 40 -288 92 -424 117 -161 29 -506 32 -662 5 -216 -38 -395 -92 -601 -182 -71 -31 -134 -59 -140 -61 -5 -3 -35 29 -66 69 l-56 74 35 104 c177 527 448 2245 783 4964 49 402 92 755 95 785 4 30 8 66 10 80 5 34 61 504 79 665 18 161 44 387 51 440 3 22 18 162 35 310 16 149 30 272 31 275 1 6 18 -133 75 -645z m-8750 -27 c183 -101 699 -362 894 -451 365 -166 668 -287 1015 -402 220 -74 633 -195 663 -195 33 0 -5 -20 -123 -63 -595 -220 -1210 -357 -1905 -423 -85 -8 -318 -18 -517 -21 l-363 -6 0 39 c0 42 16 313 25 434 31 393 146 1160 175 1160 4 0 66 -32 136 -72z m17314 65 c0 -5 16 -91 35 -193 56 -300 101 -652 130 -1005 5 -57 7 -90 20 -329 l6 -99 -358 6 c-298 5 -580 21 -728 41 -16 2 -55 7 -85 11 -514 63 -1116 207 -1570 374 -156 58 -204 81 -168 81 18 0 351 95 533 152 587 184 1316 503 1970 862 182 100 215 115 215 99z m-14455 -1404 c6 -121 23 -354 30 -404 2 -16 7 -52 10 -80 21 -188 65 -442 111 -649 14 -60 24 -110 22 -111 -8 -8 -403 -119 -548 -154 -419 -102 -802 -162 -1245 -195 -199 -15 -718 -18 -890 -5 -224 16 -386 32 -508 49 -123 18 -114 11 -122 87 -3 38 -8 82 -10 98 -2 17 -9 98 -15 180 -5 83 -12 173 -15 200 -2 28 -7 155 -11 283 l-7 232 254 1 c140 0 281 2 314 4 33 2 107 7 165 10 545 32 1180 146 1730 310 163 49 431 144 615 219 61 24 111 43 112 42 2 -2 5 -54 8 -117z m11615 56 c560 -221 1126 -369 1710 -450 63 -9 129 -18 145 -20 40 -6 311 -32 400 -39 58 -5 652 -18 748 -16 l28 0 -5 -167 c-10 -293 -17 -411 -36 -628 -19 -221 -23 -255 -34 -264 -6 -5 -90 -18 -186 -30 -847 -105 -1738 -47 -2600 169 -248 62 -510 141 -510 154 0 7 13 70 30 142 55 240 110 607 125 839 3 50 8 108 10 130 2 22 5 86 6 143 2 68 6 101 13 98 6 -2 76 -30 156 -61z m-11306 -1715 c78 -239 148 -426 235 -632 l63 -146 -112 -152 c-714 -974 -1566 -1675 -2513 -2069 l-99 -41 -103 213 c-112 230 -260 562 -349 778 -62 154 -166 427 -166 439 0 4 33 16 73 25 39 10 142 40 227 67 634 204 1345 572 1885 976 305 229 597 510 744 715 19 26 38 44 41 40 4 -5 37 -100 74 -213z m10971 138 c182 -245 548 -571 945 -841 558 -379 1279 -720 1835 -867 66 -18 121 -33 123 -35 1 -1 -17 -56 -42 -121 -133 -358 -290 -722 -500 -1156 -71 -149 -77 -157 -98 -149 -285 110 -653 304 -943 496 -492 326 -936 728 -1355 1229 -115 138 -367 468 -391 512 -10 19 -4 40 44 151 98 227 201 508 273 741 21 67 40 122 43 122 3 -1 33 -37 66 -82z m-11561 -129 c-35 -39 -228 -205 -334 -288 l-105 -81 -16 32 c-21 41 -89 223 -89 238 0 5 10 10 22 10 27 0 391 74 463 94 73 21 82 20 59 -5z m12196 -23 c85 -19 196 -42 245 -51 50 -9 95 -18 102 -20 22 -7 -77 -265 -101 -265 -17 0 -271 208 -366 299 -64 62 -79 81 -60 77 14 -3 95 -21 180 -40z m-14888 -131 c203 -26 566 -53 738 -55 l55 0 2 -108 c4 -204 43 -408 114 -603 22 -59 37 -118 35 -130 -3 -13 -5 -33 -5 -45 -1 -18 -27 -31 -168 -86 -177 -69 -359 -130 -507 -168 l-89 -24 -23 30 c-40 50 -160 294 -197 400 -20 56 -48 155 -63 220 -24 106 -28 143 -31 329 -3 204 1 255 18 255 4 0 59 -7 121 -15z m1957 -83 c39 -77 111 -244 111 -259 0 -15 -374 -243 -568 -347 -274 -147 -338 -176 -339 -154 0 7 -19 58 -41 113 -69 169 -108 354 -119 558 l-6 117 34 0 c128 1 471 26 669 50 228 27 200 36 259 -78z m13693 84 c181 -23 587 -54 717 -56 l33 0 -7 -117 c-13 -232 -72 -479 -151 -635 l-24 -48 -113 56 c-153 77 -330 174 -462 252 -120 71 -315 200 -315 207 0 21 79 201 138 313 26 49 22 48 184 28z m1881 -18 c11 -72 7 -309 -7 -413 -28 -215 -95 -422 -196 -613 -63 -117 -99 -172 -115 -172 -50 0 -411 116 -622 200 l-131 52 -7 48 c-6 40 -1 63 28 141 59 158 102 351 112 506 3 48 7 114 9 146 2 32 5 59 7 61 2 3 69 7 149 10 80 4 168 9 195 11 28 2 93 7 145 10 52 4 160 15 240 25 202 24 187 25 193 -12z m-13748 -1029 c185 -137 341 -295 472 -476 58 -81 190 -330 227 -430 l15 -42 -47 1 c-86 2 -147 -45 -173 -134 -27 -94 -15 -481 21 -667 5 -30 8 -56 6 -58 -2 -2 -31 9 -64 26 -79 40 -216 97 -322 133 -74 25 -94 38 -148 91 -287 281 -459 660 -498 1093 -6 71 -6 72 29 110 47 54 275 339 316 396 34 47 34 47 61 32 14 -9 62 -42 105 -75z m10035 -10 c41 -56 128 -165 192 -243 114 -136 118 -142 113 -181 -20 -180 -31 -244 -55 -340 -66 -255 -179 -476 -346 -675 -117 -140 -145 -162 -279 -209 -66 -24 -171 -67 -234 -97 -63 -30 -116 -52 -118 -50 -2 2 3 45 11 97 36 224 39 554 7 651 -23 71 -113 124 -185 111 -14 -3 -26 -3 -26 0 0 18 96 232 139 309 124 224 332 456 566 631 71 53 132 97 135 97 3 -1 39 -46 80 -101z m-10758 -818 c79 -83 96 -107 112 -157 46 -146 146 -342 245 -478 l50 -70 -35 -12 c-47 -16 -73 -40 -95 -89 -30 -66 -24 -383 12 -563 6 -30 9 -55 7 -58 -3 -2 -38 7 -79 21 -154 53 -504 125 -609 125 -19 0 -40 4 -46 8 -6 4 -38 48 -72 99 -74 111 -128 178 -239 299 -77 85 -85 98 -113 184 -16 50 -30 96 -30 100 0 5 48 46 108 91 206 159 466 385 607 528 38 39 73 71 76 71 4 0 49 -44 101 -99z m11528 -45 c155 -150 378 -341 543 -465 70 -52 96 -78 93 -89 -55 -182 -54 -180 -138 -270 -97 -104 -199 -235 -263 -336 l-47 -73 -82 -6 c-150 -12 -469 -80 -613 -131 -51 -18 -50 -23 -28 109 21 120 29 395 15 462 -13 60 -65 120 -111 130 -16 3 -29 7 -29 9 0 1 27 40 60 86 70 98 163 275 214 408 20 52 42 105 49 117 18 33 167 193 179 193 6 0 77 -65 158 -144z m-10026 -317 c360 -107 715 -311 956 -549 104 -103 209 -232 192 -238 -55 -18 -99 -53 -121 -96 -24 -46 -24 -52 -13 -125 35 -242 175 -584 344 -840 26 -41 47 -76 45 -78 -2 -1 -37 9 -78 23 -97 33 -292 79 -399 95 -101 14 -163 45 -307 152 -434 323 -676 804 -709 1411 -6 108 2 266 13 266 3 0 38 -10 77 -21z m8356 -156 c-1 -316 -49 -558 -162 -818 -138 -315 -393 -604 -690 -782 -56 -34 -81 -42 -160 -53 -106 -14 -286 -57 -401 -94 -43 -14 -80 -26 -82 -26 -2 0 15 28 39 63 151 215 286 532 347 811 18 82 20 105 10 137 -16 52 -56 97 -102 116 -22 8 -39 18 -39 22 0 13 155 193 211 247 186 176 419 327 673 434 102 43 322 120 344 120 9 0 12 -42 12 -177z m-10930 -372 c149 -128 282 -279 380 -431 32 -49 34 -59 32 -119 -6 -140 58 -437 143 -661 25 -64 45 -119 45 -121 0 -3 -35 -1 -77 3 -131 11 -516 9 -554 -4 -51 -17 -85 -44 -103 -83 -21 -43 -20 -43 -154 64 -320 258 -522 571 -657 1017 -2 6 47 33 108 59 188 82 547 271 667 352 19 12 39 23 45 23 6 0 62 -44 125 -99z m13666 27 c140 -84 483 -260 603 -309 46 -19 86 -40 88 -47 9 -22 -80 -264 -142 -388 -111 -220 -260 -417 -428 -565 -91 -80 -215 -175 -221 -168 -1 2 -8 18 -15 35 -16 40 -57 70 -116 85 -51 13 -575 8 -608 -6 -18 -7 -18 -6 -1 31 101 232 195 633 181 771 -5 49 -3 55 44 123 76 111 132 181 216 270 71 76 258 240 273 240 4 0 60 -32 126 -72z m-11861 -134 c186 -61 380 -149 521 -236 74 -47 82 -55 98 -102 31 -86 122 -266 184 -361 84 -129 167 -229 282 -338 l99 -95 -44 -17 c-28 -10 -56 -31 -73 -53 -25 -33 -27 -43 -26 -121 1 -98 47 -290 108 -451 19 -51 33 -96 31 -98 -2 -2 -44 11 -92 31 -48 19 -131 52 -183 72 -530 209 -896 592 -1069 1120 -65 199 -96 387 -100 601 l-2 123 93 -25 c51 -13 129 -36 173 -50z m10072 -66 c-14 -321 -80 -584 -211 -848 -207 -413 -550 -707 -1031 -883 -38 -14 -99 -37 -134 -52 -35 -14 -65 -24 -68 -21 -2 2 11 46 30 98 58 153 117 395 117 474 0 56 -41 116 -98 145 l-52 26 79 71 c195 177 389 462 482 710 23 61 27 65 104 112 179 107 380 195 582 254 145 42 152 43 182 45 l24 1 -6 -132z m-7717 -312 c14 -2 50 -7 80 -11 201 -24 450 -96 635 -184 206 -98 340 -190 497 -339 104 -99 245 -270 232 -281 -5 -4 -46 -31 -91 -60 -48 -31 -92 -68 -104 -87 -20 -34 -28 -101 -15 -142 6 -17 -7 -19 -166 -36 -95 -9 -270 -30 -388 -47 -118 -16 -222 -29 -230 -29 -25 0 -184 125 -279 221 -134 133 -260 310 -349 485 -72 142 -149 358 -177 493 l-7 34 168 -6 c93 -4 180 -9 194 -11z m5456 -3 c-2 -10 -12 -49 -22 -88 -43 -180 -164 -453 -275 -618 -114 -170 -259 -327 -408 -441 l-64 -49 -211 26 c-116 15 -238 29 -271 32 -33 3 -71 8 -85 10 -14 2 -61 7 -105 10 -44 4 -87 8 -95 10 -8 2 -69 7 -135 11 -66 3 -128 8 -138 10 -10 1 -49 4 -87 5 -45 1 -70 6 -70 14 0 18 103 187 172 283 79 109 248 285 353 367 361 282 791 423 1323 434 115 2 123 1 118 -16z m-8856 -123 c258 -33 680 -154 680 -196 0 -8 21 -67 46 -132 188 -479 527 -842 998 -1066 100 -48 108 -56 121 -127 l6 -34 -208 -68 c-114 -37 -211 -67 -214 -67 -3 0 -42 48 -85 108 -88 120 -300 338 -414 424 -222 167 -483 295 -740 362 l-85 22 -51 102 c-53 106 -121 295 -149 416 -23 100 -47 255 -41 265 3 5 16 7 28 5 13 -2 61 -8 108 -14z m12028 -52 c-28 -215 -103 -466 -191 -639 l-42 -82 -85 -23 c-278 -74 -520 -194 -749 -369 -117 -90 -313 -288 -396 -402 -33 -45 -64 -81 -70 -79 -5 2 -106 34 -222 72 -134 43 -213 74 -213 82 0 32 27 54 127 105 278 139 506 317 675 526 137 170 265 399 334 599 l29 82 102 40 c121 48 326 102 473 125 58 9 112 18 120 19 8 2 38 4 66 5 l51 1 -9 -62z m-5638 -488 c155 -24 420 -99 420 -119 0 -4 -10 -22 -23 -41 -13 -19 -43 -70 -66 -112 -23 -43 -46 -78 -50 -78 -5 0 -68 -9 -142 -19 -113 -17 -213 -20 -634 -25 -275 -3 -527 -8 -560 -10 -33 -3 -98 -8 -145 -10 -47 -3 -132 -8 -190 -12 -98 -6 -106 -5 -124 14 -18 21 -18 21 35 55 286 182 635 318 931 361 145 21 400 19 548 -4z m-3805 -321 c294 -30 567 -110 808 -237 48 -25 87 -48 87 -52 0 -3 -44 -14 -97 -23 -166 -29 -518 -105 -723 -156 -107 -26 -196 -47 -198 -46 -2 2 -23 53 -48 114 -48 121 -114 347 -114 393 l0 29 93 -6 c50 -3 137 -11 192 -16z m7015 2 c0 -59 -121 -446 -148 -473 -4 -4 -41 2 -82 12 -124 33 -523 117 -723 153 -103 19 -190 37 -192 39 -6 6 173 94 263 129 229 88 506 141 825 157 51 2 57 1 57 -17z m-9965 -65 c179 -6 190 -8 365 -42 471 -93 884 -349 1161 -719 25 -33 49 -66 53 -72 8 -15 22 -8 -214 -102 -209 -82 -383 -157 -583 -253 l-147 -70 -75 44 c-397 230 -684 591 -844 1063 l-51 150 68 5 c37 3 76 4 87 3 11 -1 92 -4 180 -7z m12950 -29 c-13 -63 -65 -209 -113 -315 -150 -337 -379 -615 -660 -802 l-103 -69 -77 36 c-265 123 -645 282 -857 358 -27 10 -53 21 -58 25 -4 3 18 37 49 76 299 368 687 594 1179 688 124 23 149 26 320 32 88 4 161 7 162 8 1 0 38 0 83 -2 l81 -4 -6 -31z m-6265 -228 c204 -3 592 -20 765 -33 1610 -129 3036 -477 4300 -1048 232 -105 265 -121 265 -128 0 -8 -240 -180 -403 -289 -479 -320 -1047 -622 -1610 -857 l-128 -53 -127 51 c-659 264 -1447 462 -2167 543 -27 3 -61 8 -75 10 -14 2 -106 11 -205 20 -99 8 -199 17 -222 20 -79 9 -456 20 -673 20 -206 0 -659 -13 -670 -20 -3 -1 -50 -6 -105 -9 -246 -17 -479 -45 -805 -97 -600 -97 -1217 -265 -1738 -472 l-163 -65 -152 62 c-638 263 -1342 657 -1901 1064 l-99 72 139 66 c580 275 1295 530 1989 709 682 176 1280 282 2095 370 300 33 806 61 1145 64 120 1 220 3 221 4 1 1 26 1 56 1 29 -1 150 -3 268 -5z m-6112 -1367 c364 -276 776 -542 1179 -764 294 -161 749 -375 1059 -498 68 -28 674 -327 674 -333 0 -2 -53 5 -117 15 -106 16 -272 39 -393 54 -25 3 -56 7 -70 9 -14 2 -95 11 -180 20 -85 8 -171 18 -190 20 -19 2 -93 9 -165 15 -71 6 -155 12 -185 15 -336 28 -1321 41 -1690 22 -148 -8 -597 -43 -650 -52 -14 -2 -56 -6 -95 -10 -38 -3 -83 -8 -100 -10 -16 -2 -50 -6 -75 -9 -1113 -127 -2465 -403 -3405 -695 -88 -27 -161 -48 -163 -47 -1 2 78 234 177 517 99 283 181 520 183 528 2 10 -144 65 -516 196 -286 100 -526 187 -534 192 -11 6 16 18 99 42 973 282 2115 523 3199 676 395 56 451 63 750 95 312 33 326 35 515 50 72 6 150 12 174 15 24 2 111 7 195 11 83 4 153 8 155 10 19 17 66 -6 169 -84z m11997 73 c111 -6 319 -21 410 -30 46 -4 185 -17 330 -31 33 -3 155 -16 270 -30 945 -110 1937 -287 2891 -514 450 -108 1031 -268 1017 -281 -5 -4 -242 -89 -528 -189 -286 -100 -523 -185 -527 -189 -4 -3 75 -243 176 -531 101 -289 183 -526 182 -527 -1 -2 -61 15 -132 38 -1067 334 -2576 628 -3814 744 -505 47 -577 50 -1190 50 -584 0 -729 -5 -1170 -40 -195 -16 -514 -49 -640 -66 -41 -5 -88 -12 -105 -14 -85 -11 -403 -57 -425 -61 -43 -8 596 304 780 381 801 336 1579 785 2190 1263 54 42 56 43 115 38 33 -3 110 -8 170 -11z"/>
<path d="M11869 7488 c-1 -62 -3 -165 -5 -228 -10 -284 54 -407 230 -440 171 -32 321 40 372 178 16 46 29 263 29 502 l0 85 -87 3 -88 3 0 -178 c-1 -323 -10 -384 -61 -427 -68 -57 -155 -38 -197 44 -23 44 -23 50 -20 302 4 295 14 268 -104 268 l-68 0 -1 -112z"/>
<path d="M11345 7574 c-110 -7 -213 -13 -229 -13 l-28 -1 5 -57 c4 -32 6 -66 7 -75 0 -15 11 -16 99 -11 54 3 101 2 103 -3 3 -5 8 -70 12 -144 10 -208 16 -319 22 -395 l5 -70 86 5 86 5 -2 94 c-1 52 -4 97 -5 100 -2 4 -6 74 -10 156 -4 83 -9 176 -12 208 -4 43 -2 57 8 59 7 0 18 2 23 3 6 2 48 3 94 4 l84 1 -7 68 c-3 37 -6 71 -6 75 0 9 -58 7 -335 -9z"/>
<path d="M12685 7555 c-2 -11 -6 -43 -8 -72 -5 -60 -10 -57 126 -68 78 -7 78 -7 73 -33 -3 -15 -8 -67 -11 -117 -6 -86 -10 -129 -20 -220 -2 -22 -7 -79 -11 -127 -3 -48 -7 -95 -8 -105 -1 -15 12 -19 82 -27 45 -5 85 -6 88 -4 5 5 14 96 45 466 l13 143 99 -7 c79 -5 101 -4 108 7 11 17 12 126 2 132 -5 3 -53 8 -108 12 -55 3 -182 14 -283 24 -182 17 -183 17 -187 -4z"/>
<path d="M10813 7531 c-34 -3 -64 -9 -68 -13 -4 -3 -1 -50 5 -105 12 -108 12 -110 35 -333 20 -195 34 -312 39 -317 2 -2 39 0 82 4 l79 8 -1 60 c-1 55 -8 135 -53 550 -18 170 -8 157 -118 146z"/>
<path d="M10425 7484 c-44 -7 -161 -25 -260 -40 -99 -14 -181 -27 -183 -29 -3 -3 18 -138 22 -142 2 -2 47 4 101 12 53 9 98 15 99 13 2 -2 10 -55 20 -118 9 -63 28 -187 41 -275 14 -88 25 -170 25 -182 0 -12 3 -24 8 -27 15 -9 172 16 172 28 0 7 -20 144 -45 306 -25 162 -45 295 -45 296 0 1 39 7 88 14 129 17 119 9 108 90 -10 70 -10 70 -40 69 -17 -1 -67 -7 -111 -15z"/>
<path d="M13456 7472 c-3 -15 -15 -88 -26 -162 -33 -221 -59 -390 -74 -480 -7 -47 -12 -86 -11 -88 2 -2 61 -12 132 -23 70 -11 157 -24 193 -29 36 -6 86 -13 111 -16 l47 -6 11 67 c7 37 11 69 9 70 -6 6 -255 45 -283 45 -26 0 -27 2 -21 32 3 18 9 56 13 85 3 30 9 56 14 59 4 2 67 -5 140 -16 73 -11 133 -19 134 -18 1 2 6 33 11 70 12 78 28 68 -146 94 -63 9 -116 18 -118 19 -1 1 3 36 9 78 10 71 13 76 33 72 17 -3 197 -30 256 -38 10 -1 17 17 26 68 6 39 11 70 10 71 0 1 -66 11 -146 23 -162 24 -264 40 -297 47 -17 3 -23 -2 -27 -24z"/>
<path d="M9655 7358 c-124 -14 -225 -71 -267 -151 -31 -59 -30 -139 1 -194 41 -72 100 -102 245 -128 94 -16 130 -39 134 -83 7 -69 -77 -108 -215 -99 l-83 5 0 -73 c0 -84 0 -85 110 -85 266 0 436 182 341 368 -35 69 -92 100 -230 126 -130 25 -164 49 -146 102 17 48 68 69 168 69 l87 0 0 63 c0 34 1 65 3 70 3 11 -82 18 -148 10z"/>
<path d="M14641 7234 c-69 -18 -107 -42 -164 -103 -134 -144 -159 -378 -55 -528 83 -121 285 -177 435 -121 203 75 310 376 208 579 -70 136 -262 215 -424 173z m208 -161 c69 -50 89 -164 51 -287 -35 -112 -110 -186 -189 -186 -50 0 -117 36 -142 76 -63 103 -8 332 96 400 55 36 132 34 184 -3z"/>
<path d="M9004 7198 l-62 -19 35 -117 c30 -100 93 -291 118 -357 4 -11 -37 27 -92 85 -55 58 -150 151 -210 207 l-111 103 -88 -26 c-49 -15 -92 -29 -96 -33 -7 -6 202 -714 214 -726 9 -9 148 35 148 47 0 16 -127 428 -145 470 -8 21 -15 40 -15 42 0 3 80 -76 178 -176 97 -99 198 -198 224 -220 l47 -39 85 26 c55 16 84 30 81 38 -2 6 -47 156 -100 332 -53 176 -101 335 -106 353 -12 37 -19 38 -105 10z"/>
<path d="M15389 7024 c-70 -183 -258 -689 -256 -691 1 -1 39 -15 83 -31 l80 -30 53 143 53 144 77 -29 c42 -15 100 -37 129 -48 49 -19 54 -19 59 -4 3 9 14 39 25 65 10 26 18 49 18 51 0 2 -53 22 -117 46 -65 24 -122 47 -127 51 -9 8 41 159 53 159 3 0 31 -9 61 -21 30 -12 90 -34 132 -50 l76 -28 26 66 c14 37 25 68 23 69 -1 1 -92 36 -202 77 -110 42 -208 78 -217 82 -13 5 -20 0 -29 -21z"/>
<path d="M8171 6919 c-40 -15 -76 -30 -78 -33 -4 -3 259 -683 273 -708 3 -5 145 46 162 58 4 3 -268 697 -276 706 -4 3 -40 -7 -81 -23z"/>
<path d="M5970 6381 c0 -34 37 -329 50 -400 5 -30 8 -56 6 -58 -2 -2 -20 25 -40 59 -34 58 -151 226 -248 356 l-40 53 -61 -5 c-34 -3 -79 -5 -100 -5 l-38 -1 5 -37 c5 -32 53 -459 73 -641 6 -50 7 -52 32 -48 14 2 50 5 79 5 l54 1 -7 63 c-7 60 -37 308 -51 412 l-6 50 38 -63 c22 -34 100 -148 174 -253 l135 -190 65 2 c36 1 76 4 90 6 l26 5 -38 346 c-22 191 -41 353 -43 360 -4 9 -26 13 -80 11 -74 -2 -75 -2 -75 -28z"/>
<path d="M4933 6316 c-40 -7 -75 -15 -78 -18 -3 -3 -12 -59 -20 -124 -8 -66 -28 -229 -44 -363 -17 -134 -29 -247 -26 -250 4 -7 162 12 169 20 2 2 8 45 13 94 l8 90 65 11 c36 7 84 12 107 13 l43 1 41 -82 c23 -46 42 -84 43 -85 3 -3 180 18 184 22 1 1 -79 156 -180 344 l-182 341 -35 -1 c-20 -1 -68 -7 -108 -13z m169 -398 c-4 -4 -38 -10 -75 -14 l-68 -7 7 104 c4 57 8 111 10 119 1 8 3 26 4 40 1 17 21 -15 65 -105 35 -71 61 -133 57 -137z"/>
<path d="M4352 6227 c-51 -8 -63 -13 -59 -26 2 -9 37 -169 77 -356 41 -187 75 -341 76 -343 6 -9 157 24 161 35 4 11 -106 541 -138 666 -11 41 -10 41 -117 24z"/>
<path d="M3690 6119 c-130 -27 -220 -52 -220 -63 0 -6 34 -163 77 -350 52 -228 82 -340 91 -344 29 -11 270 37 345 68 201 84 268 245 195 470 -17 53 -33 76 -83 127 -52 51 -72 64 -129 82 -73 23 -192 27 -276 10z m173 -130 c44 -12 101 -59 124 -103 51 -96 47 -228 -7 -290 -33 -37 -102 -70 -167 -80 -49 -7 -38 -35 -103 249 -23 99 -44 188 -46 197 -9 30 124 48 199 27z"/>
<path d="M3160 6018 c-30 -6 -56 -11 -58 -13 -4 -4 86 -357 108 -419 11 -33 19 -61 17 -62 -1 -2 -28 29 -59 69 -30 40 -116 138 -191 218 l-135 146 -93 -16 c-51 -9 -94 -21 -96 -27 -2 -6 21 -112 51 -235 30 -123 66 -276 81 -339 15 -63 31 -119 35 -124 10 -10 150 14 150 26 0 12 -85 359 -109 443 l-20 70 32 -40 c57 -71 204 -238 294 -333 l88 -94 84 16 c47 9 86 17 87 19 1 1 -13 63 -31 137 -18 74 -56 233 -85 353 -60 244 -45 224 -150 205z"/>
<path d="M2346 5864 c-38 -8 -70 -15 -72 -16 -1 -2 37 -161 85 -353 61 -246 92 -351 102 -353 8 -1 46 3 84 11 61 11 70 15 67 32 -2 11 -40 171 -86 355 -58 236 -87 335 -97 336 -8 1 -45 -4 -83 -12z"/>
<path d="M17702 6329 c-105 -33 -182 -125 -182 -214 0 -11 9 -39 19 -61 24 -53 82 -93 186 -130 120 -43 153 -87 101 -139 -33 -33 -104 -42 -191 -23 -38 8 -77 18 -87 22 -13 6 -19 -3 -32 -48 -9 -30 -19 -62 -22 -70 -12 -31 158 -59 271 -44 164 21 265 112 265 240 0 82 -56 140 -182 188 -131 51 -138 55 -138 95 0 29 5 37 32 51 43 22 115 26 180 8 29 -7 56 -10 59 -6 15 16 41 114 32 123 -14 14 -110 29 -182 28 -37 0 -94 -9 -129 -20z"/>
<path d="M18433 6325 c-77 -21 -130 -51 -189 -106 -115 -110 -153 -303 -85 -437 22 -42 83 -102 130 -126 47 -25 149 -46 222 -46 60 0 167 14 176 24 2 2 1 32 -3 66 l-7 62 -32 -6 c-55 -11 -148 -9 -195 4 -126 34 -174 183 -104 321 56 111 203 157 342 108 19 -6 37 -8 41 -3 10 12 52 116 48 120 -1 2 -29 10 -62 19 -73 19 -212 19 -282 0z"/>
<path d="M18890 6187 c-12 -67 -41 -223 -64 -347 -24 -124 -40 -228 -37 -232 3 -4 42 -10 87 -14 l81 -7 12 59 c51 246 116 640 107 645 -6 4 -45 9 -87 12 l-77 7 -22 -123z"/>
<path d="M19247 6263 c-3 -5 -18 -73 -35 -153 -17 -80 -49 -230 -72 -334 -22 -105 -40 -193 -40 -196 0 -4 39 -12 88 -19 263 -35 388 -49 393 -43 6 7 31 124 26 127 -1 1 -69 10 -152 19 -82 10 -151 19 -152 20 0 0 6 36 14 79 l16 77 41 -1 c22 0 84 -6 136 -13 52 -7 98 -10 101 -7 11 12 29 115 22 122 -5 4 -55 12 -113 19 -58 6 -117 14 -131 17 l-27 5 15 67 c9 36 17 67 18 69 1 2 59 -4 128 -13 178 -21 163 -25 179 48 8 34 14 63 13 64 -2 4 -410 53 -438 53 -14 0 -28 -3 -30 -7z"/>
<path d="M19830 6103 c-12 -54 -41 -183 -65 -288 -64 -284 -69 -305 -63 -311 10 -10 141 -25 149 -17 7 8 78 324 98 437 6 33 12 61 14 63 2 2 10 -23 17 -54 11 -54 98 -321 142 -439 20 -57 20 -57 134 -69 55 -7 63 -5 68 11 13 44 154 679 151 682 -6 6 -148 22 -153 17 -7 -7 -69 -286 -82 -370 -17 -106 -20 -107 -45 -10 -13 50 -50 164 -82 255 l-58 164 -40 7 c-22 4 -68 10 -101 14 l-62 7 -22 -99z"/>
<path d="M20823 6035 c-202 -45 -337 -227 -321 -430 3 -34 14 -79 24 -100 56 -119 211 -194 397 -195 86 0 84 -2 90 76 l3 51 -85 7 c-165 12 -243 79 -242 206 1 181 159 297 336 245 32 -9 68 -23 80 -31 22 -14 24 -13 60 46 20 34 36 63 34 64 -15 13 -75 37 -124 50 -92 23 -182 27 -252 11z"/>
<path d="M21221 5618 c-73 -187 -131 -341 -129 -342 3 -3 438 -128 451 -130 5 0 19 27 32 62 18 46 21 64 12 67 -7 2 -70 21 -142 41 -71 21 -132 39 -134 40 -7 6 52 154 61 154 5 0 64 -16 131 -35 66 -19 124 -32 128 -27 9 9 51 114 47 117 -2 1 -59 19 -127 38 -68 20 -125 38 -128 40 -4 5 36 118 46 129 3 4 67 -11 141 -32 74 -22 137 -37 140 -32 10 11 51 115 47 119 -2 2 -98 30 -213 63 -115 33 -214 62 -220 64 -6 2 -68 -145 -143 -336z"/>
<path d="M9450 3129 c-251 -30 -463 -142 -521 -275 -35 -79 -24 -167 31 -245 l21 -29 162 0 162 0 0 128 c0 112 3 132 22 168 34 63 66 97 119 124 43 22 62 25 154 25 82 -1 120 -6 174 -24 192 -63 324 -174 412 -344 l39 -77 163 0 c89 0 162 3 162 6 0 3 -16 37 -36 74 -147 280 -474 456 -884 474 -58 2 -139 0 -180 -5z"/>
<path d="M5670 3100 c-175 -32 -304 -143 -317 -271 -6 -63 19 -142 67 -208 l30 -41 185 0 c102 0 185 4 185 9 0 5 -6 14 -14 20 -30 25 -59 115 -60 186 -1 83 15 134 56 181 55 62 147 52 204 -23 58 -77 104 -227 104 -344 l0 -49 -2055 0 -2055 0 0 -65 0 -65 63 0 62 0 -3 -255 -3 -255 -144 0 -144 0 -3 278 -3 277 -31 55 c-119 211 -467 241 -642 56 -180 -190 -23 -464 273 -477 77 -4 75 -1 75 -100 l0 -89 -63 0 c-164 0 -287 -93 -287 -216 0 -58 43 -138 97 -179 163 -124 418 -104 530 43 40 53 53 98 53 185 l0 67 145 0 c144 0 145 0 146 -22 0 -13 0 -108 -1 -213 -1 -179 -2 -191 -22 -213 -12 -12 -39 -27 -60 -34 -35 -10 -38 -14 -38 -50 l0 -38 290 0 290 0 0 38 c0 36 -3 40 -38 50 -21 7 -48 22 -60 35 l-22 24 0 504 c0 277 0 510 0 517 0 9 41 12 170 12 l170 0 0 -500 c0 -578 3 -558 -80 -587 -49 -17 -51 -19 -48 -53 l3 -35 288 -3 287 -2 0 38 c0 36 -3 40 -38 50 -21 7 -48 22 -60 35 -21 22 -21 26 -24 540 l-3 518 255 -3 c252 -3 256 -3 312 -30 80 -37 142 -99 180 -177 29 -59 32 -76 33 -156 0 -104 -18 -155 -81 -225 -52 -57 -102 -87 -177 -106 -70 -19 -182 -14 -263 11 -27 8 -50 15 -50 15 -1 0 -5 -11 -8 -24 -3 -13 -8 -31 -12 -39 -3 -10 4 -17 22 -21 46 -12 114 -65 259 -206 147 -141 210 -185 301 -206 134 -31 290 27 399 148 47 52 47 55 11 102 -15 18 -16 18 -48 -9 -47 -40 -93 -56 -155 -56 -72 0 -130 29 -216 110 -58 55 -66 66 -51 72 11 4 53 17 94 29 141 42 279 138 336 236 112 191 -39 435 -319 515 -61 17 -44 18 716 18 l777 1 0 -125 c0 -69 -2 -125 -5 -125 -3 0 -23 9 -45 20 -57 29 -151 49 -265 56 -361 23 -655 -208 -655 -514 0 -93 18 -164 64 -257 34 -68 133 -197 168 -219 14 -9 47 4 167 64 l150 74 -34 38 c-79 87 -119 207 -119 363 -1 99 2 116 25 166 34 72 85 129 143 157 88 44 272 23 369 -43 l37 -26 0 -328 c0 -316 -1 -329 -21 -354 -11 -15 -38 -32 -60 -38 -37 -11 -39 -15 -39 -51 l0 -38 288 3 287 2 3 35 c3 34 1 36 -47 53 -85 30 -81 4 -81 582 l0 505 170 0 170 0 0 -524 0 -525 -25 -19 c-14 -11 -41 -23 -60 -26 -33 -6 -35 -9 -35 -44 l0 -38 288 1 287 0 3 36 c3 35 2 36 -38 43 -24 4 -52 17 -66 31 l-24 24 0 521 0 521 258 -3 257 -3 58 -29 c129 -63 156 -197 60 -288 -56 -54 -117 -73 -233 -72 -58 1 -123 6 -144 12 l-39 11 6 -80 c8 -100 50 -225 102 -304 112 -168 267 -255 455 -255 160 0 293 53 386 152 l54 59 0 -111 0 -112 -33 -33 c-20 -20 -48 -36 -70 -40 -33 -7 -36 -10 -35 -40 1 -25 7 -35 21 -39 12 -3 142 -4 291 -3 l271 2 3 37 c3 35 2 37 -37 48 -22 6 -49 22 -60 37 -21 25 -21 36 -21 539 l0 514 94 0 c106 0 106 0 106 81 l0 49 -875 0 -875 0 0 33 c0 18 -7 58 -16 88 -54 183 -214 332 -429 399 -78 24 -249 35 -325 20z m-4190 -510 c18 -18 20 -33 20 -178 0 -168 -8 -202 -50 -202 -42 0 -50 34 -50 202 0 145 2 160 20 178 11 11 25 20 30 20 6 0 19 -9 30 -20z m6178 -487 l-3 -328 -30 -45 c-86 -126 -252 -179 -378 -120 -100 47 -187 182 -191 295 l-1 49 50 4 c74 4 203 38 263 69 108 54 177 163 152 236 -20 60 -86 116 -171 147 l-54 19 183 1 183 0 -3 -327z m-6158 -353 c0 -117 -37 -170 -103 -148 -42 15 -67 54 -67 105 0 38 5 50 34 79 30 30 40 34 85 34 l51 0 0 -70z"/>
<path d="M17160 3077 c-58 -31 -82 -76 -77 -145 3 -43 10 -59 37 -87 74 -76 176 -65 238 25 46 68 15 172 -63 210 -53 26 -82 25 -135 -3z"/>
<path d="M19299 2589 c-263 -67 -361 -292 -204 -467 57 -64 146 -110 253 -132 l87 -18 -45 -20 c-106 -48 -326 -57 -449 -17 l-24 7 6 -65 c21 -228 180 -422 401 -489 60 -18 85 -20 195 -15 200 9 342 60 448 159 l53 51 0 -91 c0 -80 -3 -94 -22 -116 -13 -14 -41 -31 -63 -38 -37 -12 -40 -16 -40 -48 l0 -35 288 -2 287 -2 0 39 c0 37 -2 40 -39 50 -22 6 -49 22 -60 37 -21 25 -21 36 -21 539 l0 514 170 0 170 0 0 -516 0 -516 -28 -28 c-16 -16 -45 -32 -65 -35 -29 -6 -37 -12 -36 -29 2 -57 -11 -55 299 -53 l285 2 1 37 c1 33 -2 37 -32 43 -18 3 -46 19 -63 34 l-31 29 0 516 0 516 695 0 695 0 0 -165 c0 -91 -2 -165 -5 -165 -3 0 -36 15 -73 34 -146 73 -311 111 -522 122 -136 7 -219 -8 -314 -59 -195 -103 -289 -335 -216 -530 110 -292 539 -382 777 -164 173 159 189 403 35 560 -26 27 -40 47 -32 47 26 0 193 -48 244 -69 26 -12 61 -31 77 -42 l29 -20 0 -275 c0 -326 -1 -333 -80 -361 -49 -17 -51 -19 -48 -53 l3 -35 288 0 287 0 0 36 c0 33 -3 38 -30 44 -17 4 -44 18 -60 32 l-30 25 0 519 0 519 95 0 95 0 0 65 0 65 -1505 0 -1505 0 0 -65 0 -65 50 0 50 0 0 -330 c0 -371 0 -371 -70 -433 -85 -77 -199 -112 -340 -105 -176 10 -307 101 -334 234 l-7 31 78 7 c110 10 184 31 289 81 167 81 271 213 282 358 6 89 -14 141 -79 202 -123 115 -347 162 -540 114z m231 -95 c22 -9 45 -25 50 -35 6 -10 10 -85 10 -168 0 -136 -2 -153 -19 -170 -46 -46 -148 -45 -198 2 -22 19 -23 28 -23 172 0 148 1 152 24 174 22 20 64 37 103 40 7 1 31 -6 53 -15z m2247 -391 c33 -81 33 -487 -1 -570 -32 -76 -74 -61 -104 36 -14 45 -17 94 -17 246 0 202 11 274 47 320 16 21 23 23 40 14 11 -6 26 -27 35 -46z"/>
<path d="M8780 2495 l0 -65 100 0 100 0 0 -514 c0 -504 0 -514 -21 -540 -12 -15 -38 -30 -63 -37 -41 -10 -43 -12 -42 -47 l1 -37 288 -2 c158 -1 288 1 288 5 1 4 2 22 3 39 2 30 -1 33 -31 39 -18 3 -47 19 -63 34 l-30 28 0 516 0 516 555 0 555 0 0 -130 0 -130 -52 40 c-130 99 -338 126 -502 66 -296 -107 -409 -410 -244 -656 107 -161 317 -242 529 -205 91 15 186 57 237 104 l32 30 0 -73 c0 -89 -19 -121 -84 -137 -41 -10 -43 -12 -42 -47 l1 -37 290 0 290 0 3 36 c3 35 2 37 -42 48 -27 6 -53 21 -65 37 -21 26 -21 36 -21 540 l0 514 730 0 730 0 0 -98 0 -97 -107 7 c-60 4 -178 21 -263 37 -85 16 -177 32 -205 36 -27 4 -61 9 -75 11 -53 9 -230 5 -272 -6 -115 -30 -195 -79 -239 -147 -58 -93 -45 -197 35 -271 86 -79 131 -91 352 -95 164 -2 171 -3 216 -30 47 -27 88 -90 88 -133 -1 -37 -38 -100 -80 -137 -76 -65 -171 -84 -333 -67 -114 11 -220 39 -277 72 -38 22 -42 19 -75 -43 -14 -26 -13 -27 30 -43 77 -30 166 -95 285 -210 148 -142 232 -185 365 -186 98 0 190 46 245 121 l31 43 -25 25 -26 25 -45 -22 c-25 -12 -54 -22 -65 -22 -36 0 -105 39 -150 85 l-44 45 94 0 c109 0 205 18 276 51 67 31 156 123 172 175 38 130 -21 260 -146 321 -56 27 -62 28 -267 33 -179 4 -215 8 -238 23 -64 42 -80 148 -31 207 70 82 144 84 467 14 88 -19 191 -38 230 -42 l72 -7 3 -354 c2 -353 2 -355 -20 -378 -12 -13 -39 -29 -60 -35 -37 -11 -39 -14 -36 -47 l3 -36 285 0 285 0 3 35 c3 34 1 36 -47 53 -85 30 -81 4 -81 582 l0 505 170 0 170 0 0 -519 0 -519 -30 -25 c-16 -14 -43 -28 -60 -32 -27 -6 -30 -10 -30 -45 l0 -39 268 0 c147 0 277 2 290 5 17 5 22 14 22 38 0 29 -4 33 -50 49 -84 30 -80 4 -80 582 l0 505 695 0 695 0 0 -165 0 -165 -47 24 c-193 97 -551 160 -718 126 -153 -31 -284 -131 -348 -267 -30 -63 -32 -76 -32 -173 0 -93 3 -111 27 -163 15 -32 52 -84 83 -116 229 -240 644 -185 786 104 32 65 34 76 34 170 0 87 -3 107 -27 157 -14 31 -47 78 -73 103 l-46 47 43 -7 c70 -12 199 -55 261 -87 l57 -31 0 -294 0 -295 -31 -29 c-17 -15 -46 -31 -65 -35 -33 -6 -35 -8 -32 -43 l3 -36 288 -3 287 -2 0 38 c0 37 -2 40 -39 51 -22 6 -49 23 -60 38 -21 25 -21 36 -21 539 l0 513 98 3 97 3 3 63 3 62 -3176 0 -3175 0 0 -65z m1535 -364 c22 -10 55 -30 73 -45 l32 -28 0 -203 0 -204 -45 -31 c-124 -85 -254 -80 -347 15 -163 165 -83 481 130 514 60 9 107 4 157 -18z m3651 -16 c35 -84 43 -410 14 -544 -12 -54 -41 -95 -63 -89 -7 2 -23 25 -36 51 -34 69 -48 240 -34 402 14 150 37 215 78 215 20 0 29 -8 41 -35z"/>
<path d="M15720 2496 l0 -64 178 -4 c168 -3 180 -4 235 -30 148 -69 227 -186 228 -338 2 -213 -218 -361 -481 -322 -36 6 -71 12 -79 14 -8 2 -18 -12 -26 -34 -12 -34 -12 -38 5 -43 51 -16 156 -100 269 -214 135 -138 182 -171 276 -196 68 -18 128 -13 213 16 73 25 116 53 185 118 l58 55 -33 33 c-32 33 -32 33 -53 13 -50 -47 -186 -66 -248 -34 -18 10 -65 49 -105 87 l-72 71 87 18 c171 34 314 133 370 255 39 83 38 184 -1 266 -54 113 -187 212 -336 251 -51 14 -28 15 308 15 283 1 362 -2 362 -11 0 -7 0 -128 0 -268 l0 -255 -25 -22 c-62 -55 -149 -54 -277 1 -13 6 -19 0 -27 -31 -19 -67 -17 -70 55 -93 72 -22 147 -25 209 -9 22 5 46 11 54 12 11 2 14 -29 12 -177 -1 -170 -2 -181 -23 -203 -12 -13 -39 -28 -60 -35 -35 -10 -38 -14 -38 -50 l0 -38 290 0 290 0 0 38 c0 36 -3 40 -38 50 -21 7 -48 22 -60 35 l-22 24 -3 516 -2 517 220 0 c297 0 365 -19 482 -135 50 -50 65 -72 78 -120 53 -180 -52 -354 -252 -419 -91 -29 -184 -31 -292 -4 -8 2 -19 -12 -26 -34 l-14 -37 55 -28 c63 -33 146 -102 224 -188 84 -92 149 -144 219 -178 140 -66 290 -25 430 117 l54 54 -23 34 c-13 18 -25 35 -27 37 -2 3 -16 -7 -31 -21 -102 -95 -198 -78 -332 57 l-63 63 44 12 c327 82 510 308 419 517 -47 111 -207 224 -364 258 -55 12 -22 13 322 14 l382 1 0 65 0 65 -1590 0 -1590 0 0 -64z"/>
<path d="M18561 1877 c-10 -23 -16 -45 -14 -49 11 -21 123 -51 193 -52 76 0 180 26 180 45 0 13 -22 99 -25 99 -1 0 -23 -9 -49 -21 -61 -27 -145 -27 -214 -1 l-52 20 -19 -41z"/>
</g>
</svg>